<?xml version="1.0" encoding="iso-8859-1"?>
<!-- Generator: Adobe Illustrator 19.0.0, SVG Export Plug-In . SVG Version: 6.00 Build 0)  -->
<svg version="1.1" id="Capa_1" xmlns="http://www.w3.org/2000/svg" xmlns:xlink="http://www.w3.org/1999/xlink" x="0px" y="0px"
	 viewBox="0 0 400.196 400.196" style="enable-background:new 0 0 400.196 400.196;" xml:space="preserve">
<path style="fill:#4DCFE0;" d="M276.898,75.755h-31.347V31.347H153.6v44.408h-31.347V26.122C122.253,11.494,133.747,0,148.376,0
	h102.4c14.629,0,26.122,11.494,26.122,26.122L276.898,75.755L276.898,75.755z"/>
<g>
	<path style="fill:#1185E0;" d="M199.576,338.547c8.882,0,15.673-6.792,15.673-15.673V137.404c0-8.882-6.792-15.673-15.673-15.673
		c-8.882,0-15.673,6.792-15.673,15.673v185.469C183.902,331.755,190.694,338.547,199.576,338.547z"/>
	<path style="fill:#1185E0;" d="M252.865,338.547h0.522c8.359,0,15.151-6.792,15.673-15.151l6.792-185.469
		c0.522-8.882-6.269-15.673-15.151-16.196c-8.882-0.522-15.673,6.269-16.196,15.151l-6.792,185.469
		C237.192,330.71,243.984,338.024,252.865,338.547z"/>
	<path style="fill:#1185E0;" d="M145.763,338.547h0.522c8.882-0.522,15.151-7.837,15.151-16.196l-6.792-185.469
		c-0.522-8.882-7.314-15.673-16.196-15.151c-8.882,0.522-15.151,7.837-15.151,16.196l6.792,185.469
		C130.612,331.755,137.404,338.547,145.763,338.547z"/>
	<path style="fill:#1185E0;" d="M375.641,60.082H23.51c-8.882,0-15.673,6.792-15.673,15.673s6.792,15.673,15.673,15.673h22.465
		L72.098,386.09c0.522,7.837,7.314,14.106,15.673,14.106h224.131c8.359,0,15.151-6.269,15.673-14.106l26.122-294.661h22.988
		c8.882,0,15.673-6.792,15.673-15.673S384.522,60.082,375.641,60.082z M297.273,368.849H101.355L76.8,91.429h243.984
		L297.273,368.849z"/>
</g>
<g>
</g>
<g>
</g>
<g>
</g>
<g>
</g>
<g>
</g>
<g>
</g>
<g>
</g>
<g>
</g>
<g>
</g>
<g>
</g>
<g>
</g>
<g>
</g>
<g>
</g>
<g>
</g>
<g>
</g>
</svg>
