<svg id="_x31__x2C_5" enable-background="new 0 0 24 24" height="512" viewBox="0 0 24 24" width="512" xmlns="http://www.w3.org/2000/svg"><path d="m14.839 20.25h-10.678c-1.408 0-2.554-1.145-2.554-2.554v-14.392c0-1.408 1.145-2.554 2.554-2.554h10.679c1.408 0 2.554 1.145 2.554 2.554v14.393c-.001 1.408-1.146 2.553-2.555 2.553z" fill="#1976d2"/><path d="m19.675 23h-10.35c-1.365 0-2.475-1.11-2.475-2.475v-13.05c0-1.365 1.11-2.475 2.475-2.475h10.35c1.365 0 2.475 1.11 2.475 2.475v13.05c0 1.365-1.11 2.475-2.475 2.475z" fill="#eceff1"/><path d="m18.25 17h-7.5c-.414 0-.75-.336-.75-.75s.336-.75.75-.75h7.5c.414 0 .75.336.75.75s-.336.75-.75.75z"/><path d="m18.25 21h-7.5c-.414 0-.75-.336-.75-.75s.336-.75.75-.75h7.5c.414 0 .75.336.75.75s-.336.75-.75.75z"/><path d="m18.25 13.5h-7.5c-.414 0-.75-.336-.75-.75s.336-.75.75-.75h7.5c.414 0 .75.336.75.75s-.336.75-.75.75z"/><path d="m18.25 9.5h-7.5c-.414 0-.75-.336-.75-.75s.336-.75.75-.75h7.5c.414 0 .75.336.75.75s-.336.75-.75.75z"/><path d="m3.75 21c-1.517 0-2.75-1.233-2.75-2.75v-15.5c0-1.517 1.233-2.75 2.75-2.75h11.5c.98 0 1.89.528 2.373 1.38.205.36.078.818-.282 1.022-.36.203-.819.077-1.022-.282-.22-.389-.62-.62-1.068-.62h-11.501c-.689 0-1.25.561-1.25 1.25v15.5c0 .689.561 1.25 1.25 1.25.414 0 .75.336.75.75s-.336.75-.75.75z"/><path d="m20.25 24h-11.5c-1.517 0-2.75-1.233-2.75-2.75v-14.5c0-1.517 1.233-2.75 2.75-2.75h11.5c1.517 0 2.75 1.233 2.75 2.75v14.5c0 1.517-1.233 2.75-2.75 2.75zm-11.5-18.5c-.689 0-1.25.561-1.25 1.25v14.5c0 .689.561 1.25 1.25 1.25h11.5c.689 0 1.25-.561 1.25-1.25v-14.5c0-.689-.561-1.25-1.25-1.25z"/></svg>