<?xml version="1.0" encoding="iso-8859-1"?>
<!-- Generator: Adobe Illustrator 19.0.0, SVG Export Plug-In . SVG Version: 6.00 Build 0)  -->
<svg version="1.1" id="Capa_1" xmlns="http://www.w3.org/2000/svg" xmlns:xlink="http://www.w3.org/1999/xlink" x="0px" y="0px"
	 viewBox="0 0 400.196 400.196" style="enable-background:new 0 0 400.196 400.196;" xml:space="preserve">
<polygon style="fill:#4DCFE0;" points="338.547,75.755 311.38,384.522 87.249,384.522 60.082,75.755 137.927,75.755 261.224,75.755 
	"/>
<g>
	<path style="fill:#3A2C51;" d="M199.576,338.547c-8.882,0-15.673-6.792-15.673-15.673V137.404c0-8.882,6.792-15.673,15.673-15.673
		s15.673,6.792,15.673,15.673v185.469C215.249,331.755,208.457,338.547,199.576,338.547z"/>
	<path style="fill:#3A2C51;" d="M253.388,338.547h-0.522c-8.882-0.522-15.151-7.837-15.151-16.196l6.792-185.469
		c0.522-8.882,7.837-15.673,16.196-15.151c8.882,0.522,15.151,7.837,15.151,16.196l-6.792,185.469
		C268.539,331.755,261.747,338.547,253.388,338.547z"/>
	<path style="fill:#3A2C51;" d="M145.763,338.547c-8.359,0-15.151-6.792-15.673-15.151l-6.792-185.469
		c-0.522-8.882,6.269-15.673,15.151-16.196c8.882-0.522,15.673,6.269,16.196,15.151l6.792,185.469
		c0.522,8.882-6.269,15.673-15.151,16.196H145.763z"/>
	<path style="fill:#3A2C51;" d="M375.641,60.082h-37.094c0,0,0,0-0.522,0h-61.127V26.122C276.898,11.494,265.404,0,250.776,0h-102.4
		c-14.629,0-26.122,11.494-26.122,26.122v33.959H60.082H23.51c-8.882,0-15.673,6.792-15.673,15.673s6.792,15.673,15.673,15.673
		h22.465L72.098,386.09c0.522,7.837,7.314,14.106,15.673,14.106h224.131c8.359,0,15.151-6.269,15.673-14.106l26.122-294.661h22.988
		c8.882,0,15.673-6.792,15.673-15.673S384.522,60.082,375.641,60.082z M153.6,31.347h91.951v28.735H153.6V31.347z M297.273,368.849
		H101.355L76.8,91.429h243.984L297.273,368.849z"/>
</g>
<g>
</g>
<g>
</g>
<g>
</g>
<g>
</g>
<g>
</g>
<g>
</g>
<g>
</g>
<g>
</g>
<g>
</g>
<g>
</g>
<g>
</g>
<g>
</g>
<g>
</g>
<g>
</g>
<g>
</g>
</svg>
