<?xml version="1.0"?>
<svg width="24" height="24" xmlns="http://www.w3.org/2000/svg" xmlns:svg="http://www.w3.org/2000/svg">

 <g class="layer">
  <title>Layer 1</title>
  <g id="svg_21">
   <path d="m18.164917,10.908953c0,1.879224 -0.883598,3.619247 -2.407352,4.785062c-0.622125,0.469806 -1.027858,1.087514 -1.154087,1.748723c-0.018033,-0.0087 -0.027049,-0.0087 -0.045082,-0.0087l-5.409781,0c-0.018033,0 -0.045082,0 -0.063114,0.0087c-0.126228,-0.687309 -0.495897,-1.287617 -1.027858,-1.670422c-1.965554,-1.435519 -2.885216,-3.784549 -2.380304,-6.15098c0.495897,-2.30553 2.434401,-4.184754 4.823721,-4.66326c1.90244,-0.391505 3.849961,0.060901 5.328634,1.218016c1.48769,1.165815 2.335222,2.888437 2.335222,4.732861z" fill="#5cc98c" id="svg_1"/>
   <path d="m14.603478,17.442737c-0.027049,0.147902 -0.045082,0.295804 -0.045082,0.452406l0,1.931425c0,0.835211 -0.712288,1.52252 -1.577853,1.52252l-2.254075,0c-0.757369,0 -1.577853,-0.556807 -1.577853,-1.774823l0,-1.53992c0,-0.200103 -0.018033,-0.400205 -0.063114,-0.591608c0.018033,-0.0087 0.045082,-0.0087 0.063114,-0.0087l5.409781,0c0.018033,0 0.027049,0 0.045082,0.0087z" fill="#24BA7B" id="svg_2"/>
   <path d="m13.882174,18.739054l-4.057336,0c-0.373275,0 -0.676223,-0.292324 -0.676223,-0.652508s0.302948,-0.652508 0.676223,-0.652508l4.057336,0c0.373275,0 0.676223,0.292324 0.676223,0.652508s-0.302948,0.652508 -0.676223,0.652508z" fill="black" id="svg_3"/>
   <path d="m12.980544,21.349088l-2.254075,0c-0.760074,0 -1.577853,-0.556807 -1.577853,-1.778303l0,-1.5347c0,-0.923082 -0.407537,-1.770473 -1.090071,-2.266379c-1.970062,-1.431169 -2.88161,-3.785419 -2.379402,-6.144019c0.491388,-2.31075 2.428992,-4.187364 4.821016,-4.67022c1.90244,-0.386285 3.848157,0.060901 5.332241,1.224976c1.48228,1.162335 2.332517,2.885827 2.332517,4.728511c0,1.877484 -0.879089,3.620117 -2.411861,4.783322c-0.759173,0.575947 -1.19466,1.378098 -1.19466,2.200258l0,1.934035c0,0.839561 -0.70778,1.52252 -1.577853,1.52252zm-1.13966,-15.223457c-0.353439,0 -0.709583,0.03567 -1.065727,0.107011c-1.871784,0.377585 -3.387424,1.846164 -3.772421,3.654917c-0.395816,1.859214 0.320079,3.714078 1.868178,4.839003c1.019744,0.74125 1.629246,1.978406 1.629246,3.309523l0,1.5347c0,0.079171 0.01082,0.473286 0.225408,0.473286l2.254075,0c0.124425,0 0.225408,-0.097441 0.225408,-0.217503l0,-1.934035c0,-1.225846 0.623928,-2.401231 1.711294,-3.226872c1.205479,-0.913512 1.896128,-2.28291 1.896128,-3.756709c0,-1.447699 -0.66901,-2.802306 -1.833916,-3.715818c-0.890811,-0.697749 -1.995308,-1.067504 -3.137673,-1.067504z" fill="black" id="svg_12"/>
   <path d="m11.853506,3.476447c-0.373275,0 -0.676223,-0.292324 -0.676223,-0.652508l0,-1.702612c0,-0.360185 0.302948,-0.652508 0.676223,-0.652508s0.676223,0.292324 0.676223,0.652508l0,1.702612c0,0.360185 -0.302948,0.652508 -0.676223,0.652508z" fill="black" id="svg_4"/>
   <path d="m17.778118,5.844617c-0.173113,0 -0.346226,-0.063511 -0.477864,-0.191402c-0.264178,-0.254913 -0.264178,-0.668169 0,-0.923082l1.247856,-1.204096c0.264178,-0.254913 0.692452,-0.254913 0.95663,0s0.264178,0.668169 0,0.923082l-1.247856,1.204096c-0.13254,0.127022 -0.305653,0.191402 -0.478766,0.191402z" fill="black" id="svg_5"/>
   <path d="m21.996845,11.561461l-1.76449,0c-0.373275,0 -0.676223,-0.292324 -0.676223,-0.652508s0.302948,-0.652508 0.676223,-0.652508l1.76449,0c0.373275,0 0.676223,0.292324 0.676223,0.652508s-0.302948,0.652508 -0.676223,0.652508z" fill="black" id="svg_6"/>
   <path d="m19.025974,18.482401c-0.173113,0 -0.346226,-0.063511 -0.477864,-0.191402l-1.247856,-1.204096c-0.264178,-0.254913 -0.264178,-0.668169 0,-0.923082s0.692452,-0.254913 0.95663,0l1.247856,1.204096c0.264178,0.254913 0.264178,0.668169 0,0.923082c-0.13254,0.127892 -0.305653,0.191402 -0.478766,0.191402z" fill="black" id="svg_7"/>
   <path d="m4.681038,18.482401c-0.173113,0 -0.346226,-0.063511 -0.477864,-0.191402c-0.264178,-0.254913 -0.264178,-0.668169 0,-0.923082l1.247856,-1.204096c0.264178,-0.254913 0.692452,-0.254913 0.95663,0s0.264178,0.668169 0,0.923082l-1.247856,1.204096c-0.13254,0.127892 -0.305653,0.191402 -0.478766,0.191402z" id="svg_8"/>
   <path d="m3.474657,11.561461l-1.76449,0c-0.373275,0 -0.676223,-0.292324 -0.676223,-0.652508s0.302948,-0.652508 0.676223,-0.652508l1.76449,0c0.373275,0 0.676223,0.292324 0.676223,0.652508s-0.302948,0.652508 -0.676223,0.652508z" fill="black" id="svg_9"/>
   <path d="m5.928895,5.844617c-0.173113,0 -0.346226,-0.063511 -0.477864,-0.191402l-1.247856,-1.204096c-0.264178,-0.254913 -0.264178,-0.668169 0,-0.923082s0.692452,-0.254913 0.95663,0l1.247856,1.204096c0.264178,0.254913 0.264178,0.668169 0,0.923082c-0.133441,0.127022 -0.305653,0.191402 -0.478766,0.191402z" fill="black" id="svg_10"/>
   <path d="m15.234619,11.343958c-0.373275,0 -0.676223,-0.292324 -0.676223,-0.652508c0,-1.319807 -1.11171,-2.392531 -2.479483,-2.392531c-0.373275,0 -0.676223,-0.292324 -0.676223,-0.652508s0.302948,-0.652508 0.676223,-0.652508c2.112519,0 3.831928,1.659111 3.831928,3.697548c0,0.360185 -0.302948,0.652508 -0.676223,0.652508z" fill="black" id="svg_11"/>
  </g>
  <circle cx="17.349076" cy="18.126478" fill="#ffffff" id="svg_22" r="5.853806"/>
  <g id="svg_20">
   <path d="m17.701325,23.589142c-3.001358,0 -5.443087,-2.40311 -5.443087,-5.358769s2.441728,-5.358769 5.443087,-5.358769s5.443087,2.40311 5.443087,5.358769s-2.441728,5.358769 -5.443087,5.358769z" fill="#5cc98c" id="svg_18"/>
   <path d="m17.701325,17.436481l-0.806383,0l-1.411171,0c-0.445124,0 -0.806383,0.35487 -0.806383,0.793892s0.36126,0.793892 0.806383,0.793892l1.411171,0l0.806383,0l0,-1.587783z" fill="#dedede" id="svg_13"/>
   <path d="m17.701325,19.024265l-0.806383,0l0,1.38931c0,0.439022 0.36126,0.793892 0.806383,0.793892l0,-2.183202zm0,-3.770986c-0.445124,0 -0.806383,0.35487 -0.806383,0.793892l0,1.38931l0.806383,0l0,-2.183202z" fill="#dedede" id="svg_14"/>
   <path d="m19.918878,19.024265l-4.435108,0c-0.445124,0 -0.806383,-0.35487 -0.806383,-0.793892s0.36126,-0.793892 0.806383,-0.793892l4.435108,0c0.445124,0 0.806383,0.35487 0.806383,0.793892s-0.36126,0.793892 -0.806383,0.793892z" fill="#fff" id="svg_16"/>
   <path d="m17.701325,21.207467c-0.445124,0 -0.806383,-0.35487 -0.806383,-0.793892l0,-4.366404c0,-0.439022 0.36126,-0.793892 0.806383,-0.793892s0.806383,0.35487 0.806383,0.793892l0,4.366404c0,0.439022 -0.36126,0.793892 -0.806383,0.793892z" fill="#fff" id="svg_17"/>
  </g>
 </g>
</svg>
