<?xml version="1.0" standalone="no"?>
<!DOCTYPE svg PUBLIC "-//W3C//DTD SVG 20010904//EN"
 "http://www.w3.org/TR/2001/REC-SVG-20010904/DTD/svg10.dtd">
<svg version="1.0" xmlns="http://www.w3.org/2000/svg"
 width="32.000000pt" height="32.000000pt" viewBox="0 0 32.000000 32.000000"
 preserveAspectRatio="xMidYMid meet">

<g transform="translate(0.000000,32.000000) scale(0.100000,-0.100000)"
fill="#000000" stroke="none">
<path d="M93 300 c-45 -27 -66 -64 -65 -115 0 -54 8 -68 77 -135 l56 -55 64
66 c64 66 65 68 65 122 0 40 -5 61 -21 81 -44 56 -118 72 -176 36z m130 -12
c26 -13 57 -68 57 -101 0 -39 -21 -75 -74 -127 l-46 -44 -46 44 c-79 77 -93
129 -51 191 35 52 101 67 160 37z"/>
<path d="M110 228 c-54 -58 18 -137 90 -98 35 19 33 88 -4 112 -22 15 -66 8
-86 -14z m82 -5 c22 -20 23 -56 2 -77 -48 -48 -113 25 -67 76 20 22 41 23 65
1z"/>
</g>
</svg>
