<?xml version="1.0" standalone="no"?>
<!DOCTYPE svg PUBLIC "-//W3C//DTD SVG 20010904//EN"
 "http://www.w3.org/TR/2001/REC-SVG-20010904/DTD/svg10.dtd">
<svg version="1.0" xmlns="http://www.w3.org/2000/svg"
 width="1024.000000pt" height="1024.000000pt" viewBox="0 0 1024.000000 1024.000000"
 preserveAspectRatio="xMidYMid meet">
<metadata>
Created by potrace 1.14, written by Peter Selinger 2001-2017
</metadata>
<g transform="translate(0.000000,1024.000000) scale(0.100000,-0.100000)"
fill="#000000" stroke="none">
<path d="M3803 10233 l-1883 -3 -2 -357 -3 -358 -65 -13 c-83 -16 -264 -19
-312 -5 -30 9 -39 8 -49 -3 -25 -30 41 -101 134 -144 l38 -17 -28 -8 c-15 -4
-75 -11 -133 -15 l-105 -7 81 -1 c74 -2 186 12 208 25 5 4 -14 15 -43 25 -61
23 -157 107 -149 130 6 13 14 13 75 1 85 -18 179 -12 343 22 130 27 230 32
277 14 37 -14 81 -56 103 -99 21 -41 40 -134 40 -199 1 -45 1 -46 15 -21 8 14
22 48 30 77 36 119 178 172 275 103 21 -15 41 -21 67 -18 43 3 51 -10 27 -46
-12 -20 -17 -52 -18 -139 -3 -143 -24 -202 -103 -288 -99 -106 -263 -170 -578
-224 -173 -30 -255 -64 -347 -142 -63 -54 -143 -149 -184 -219 -27 -46 -43
-54 -63 -30 -8 10 -8 21 -1 41 6 15 9 30 6 32 -2 2 -9 -10 -15 -28 -9 -27 -8
-35 5 -51 10 -10 23 -18 30 -18 7 0 41 40 74 90 34 49 90 115 124 147 56 53
165 120 224 138 l22 6 0 -846 0 -847 -26 17 c-60 39 -202 -11 -312 -110 -33
-30 -104 -77 -167 -110 -61 -31 -114 -61 -120 -67 -31 -32 238 122 283 162 64
58 172 117 228 126 28 4 52 1 80 -12 21 -9 42 -18 46 -18 3 -1 10 -5 15 -10 5
-5 3 -6 -4 -2 -17 10 -16 -4 2 -28 25 -33 19 -88 -13 -119 -36 -35 -74 -47
-191 -62 -65 -8 -82 -13 -52 -14 58 -1 169 18 204 36 l27 14 0 -857 0 -857
-27 -71 c-25 -65 -27 -82 -27 -206 1 -120 4 -143 27 -205 l27 -70 0 -2232 0
-2233 1967 -1 c1083 0 2028 -3 2101 -5 78 -3 132 -1 132 5 0 36 -12 41 -102
41 -156 0 -289 29 -335 72 -33 31 -30 79 6 120 27 31 34 33 93 33 52 0 76 -6
138 -37 41 -20 90 -47 108 -59 l34 -22 -67 133 c-97 193 -81 178 -171 166 -95
-12 -251 4 -297 31 -42 25 -47 61 -11 96 14 15 42 30 62 33 50 10 141 -9 214
-45 35 -16 63 -29 64 -28 3 4 -140 214 -174 256 -18 23 -39 41 -46 41 -33 0
-183 87 -232 134 -79 77 -84 135 -17 181 42 28 90 32 132 11 63 -33 146 -151
181 -261 7 -22 34 -69 60 -105 26 -36 69 -98 96 -139 l49 -74 6 105 c11 189
77 257 153 155 25 -34 34 -138 17 -212 -13 -58 -52 -125 -85 -146 l-23 -14 87
-172 86 -171 12 65 c17 91 48 158 89 193 40 35 61 33 106 -8 31 -30 36 -81 13
-137 -20 -47 -91 -121 -145 -152 -25 -15 -47 -28 -49 -29 -2 -1 4 -16 13 -33
l16 -31 2017 2 2017 3 3 322 2 321 -62 21 c-34 12 -65 21 -68 21 -4 0 -12 -24
-19 -54 -19 -84 -67 -157 -123 -185 -44 -21 -52 -22 -99 -11 -51 12 -89 39
-89 62 0 28 101 107 197 154 l101 50 -87 33 c-47 19 -127 53 -177 76 l-91 42
-18 -34 c-32 -58 -129 -140 -186 -157 -44 -13 -56 -14 -84 -2 -65 27 -83 88
-40 132 34 34 83 53 185 73 l84 17 -74 38 c-41 21 -117 64 -168 94 l-93 55
-25 -26 c-43 -46 -102 -70 -186 -75 -100 -6 -140 2 -177 37 -42 39 -43 84 -3
105 45 23 151 39 222 32 35 -4 62 -5 60 -3 -3 3 -43 33 -90 67 -47 35 -107 82
-135 104 -27 23 -71 50 -97 60 -103 38 -213 128 -242 197 -34 82 46 187 122
158 61 -23 132 -122 182 -252 17 -44 41 -88 53 -98 39 -33 246 -189 251 -189
3 0 -5 21 -16 47 -50 114 -61 216 -28 270 39 64 91 67 117 6 20 -50 27 -193
14 -288 -12 -80 -12 -80 13 -100 27 -21 259 -155 269 -155 4 0 -9 26 -27 58
-42 70 -76 169 -76 217 0 48 24 91 60 110 45 23 75 19 103 -15 37 -43 51 -125
51 -287 l0 -141 86 -38 c99 -43 270 -114 276 -114 2 0 -17 34 -42 76 -59 96
-111 225 -131 320 -20 100 -6 150 50 177 73 36 132 -8 162 -118 15 -54 17 -90
12 -227 -3 -90 -10 -180 -15 -200 -10 -36 -9 -37 29 -52 22 -9 46 -16 54 -16
13 0 15 291 15 2425 l0 2425 -34 47 c-19 27 -52 81 -74 122 l-40 73 -17 -53
c-16 -47 -91 -246 -109 -289 -5 -11 11 -27 57 -57 152 -100 197 -257 88 -303
-44 -18 -83 7 -115 72 -26 54 -56 156 -56 193 0 11 -40 -59 -88 -155 l-88
-175 32 -27 c53 -46 78 -118 79 -225 0 -100 -13 -132 -68 -163 -24 -13 -28
-13 -50 8 -32 30 -48 88 -56 201 l-6 95 -38 -62 c-21 -34 -64 -97 -96 -140
-32 -43 -64 -96 -71 -118 -40 -126 -136 -254 -205 -273 -68 -19 -155 36 -155
97 0 63 107 157 249 218 75 33 77 34 153 141 42 59 87 125 99 146 l21 38 -43
-21 c-151 -78 -279 -79 -319 -5 -18 34 -7 53 46 80 34 18 59 20 202 20 l162 0
75 146 c41 81 75 150 75 153 0 3 -26 -11 -57 -31 -85 -55 -160 -82 -221 -83
-48 0 -58 4 -88 34 -64 64 -36 130 70 161 28 9 114 20 191 26 77 6 145 12 151
14 12 3 149 365 139 365 -1 0 -33 -21 -71 -46 -148 -100 -335 -172 -417 -161
-73 10 -111 75 -83 141 10 25 28 40 67 59 82 39 171 51 355 44 l161 -5 37 132
c20 73 53 213 73 311 37 183 46 210 70 201 11 -5 13 302 11 1857 l-3 1862
-2275 0 c-1251 0 -3122 -1 -4157 -2z m3065 -36 c5 -27 -152 -226 -338 -428
l-89 -96 59 -51 c59 -53 110 -135 110 -179 0 -44 -50 -121 -92 -144 -27 -15
-53 5 -73 53 -13 31 -20 79 -23 171 l-4 127 -82 -77 c-44 -43 -109 -102 -143
-132 l-63 -54 24 -28 c31 -36 63 -123 70 -186 10 -83 -26 -142 -96 -159 -22
-5 -34 0 -59 26 l-32 31 6 87 c3 48 12 107 21 131 9 24 15 46 13 47 -2 2 -39
-24 -83 -57 -43 -34 -112 -84 -152 -111 l-72 -49 16 -31 c25 -48 15 -167 -19
-238 -39 -82 -76 -114 -134 -114 -43 -1 -48 2 -57 27 -17 47 10 137 82 280 2
4 -20 -6 -49 -24 -29 -17 -98 -53 -153 -81 -63 -31 -123 -71 -158 -103 -70
-65 -185 -125 -240 -125 -54 0 -94 24 -118 70 -26 52 -25 72 6 109 40 47 112
65 274 66 135 0 135 0 205 37 39 20 101 54 138 75 l68 40 -73 6 c-155 13 -248
66 -248 139 0 19 5 39 12 46 37 37 212 -19 346 -110 l43 -30 72 48 c59 39 169
118 199 143 4 3 -50 6 -120 6 -105 0 -134 3 -166 19 -106 53 -98 196 11 196
63 0 151 -28 269 -84 l112 -54 103 93 c57 51 122 112 144 135 37 39 38 42 15
36 -14 -3 -75 -9 -136 -12 -184 -11 -347 24 -394 84 -32 39 -26 88 14 128 30
30 40 34 88 34 93 0 272 -72 417 -168 l59 -40 59 62 c83 85 183 201 283 329
64 82 89 107 105 105 11 -2 21 -11 23 -21z m2207 -1183 c-33 -80 -82 -126
-181 -169 -106 -47 -147 -110 -124 -195 9 -33 20 -45 63 -70 138 -78 367 -80
579 -4 71 26 85 26 75 0 -13 -33 -245 -166 -291 -166 -32 0 -14 -18 42 -43 60
-26 128 -43 221 -55 30 -4 55 -11 55 -17 1 -5 -15 -18 -34 -27 -50 -25 -158
-24 -245 4 -75 23 -119 25 -311 13 -81 -5 -132 -4 -153 3 -17 6 -31 8 -31 4 0
-4 25 -40 55 -81 75 -100 100 -195 79 -298 l-6 -29 -91 90 c-71 70 -115 104
-192 146 -127 70 -247 183 -265 248 -13 52 -7 89 25 135 l23 35 -39 12 c-22 7
-56 27 -77 44 -20 18 -50 40 -65 49 -32 21 -27 37 11 37 22 0 30 8 44 40 24
59 72 77 147 57 31 -7 64 -17 73 -21 15 -7 16 -2 12 46 -7 74 24 134 86 165
64 32 183 53 302 54 57 0 126 7 153 14 78 20 77 20 60 -21z m-5150 -1009 c182
-38 352 -170 433 -335 44 -90 72 -198 72 -281 0 -57 -24 -182 -44 -231 -8 -18
-204 -420 -436 -893 -232 -473 -424 -866 -427 -873 -4 -10 95 -12 488 -10
l494 3 6 295 c5 270 7 300 27 353 70 189 235 337 425 382 282 67 573 -91 685
-372 26 -67 27 -72 32 -367 l5 -299 59 -14 c78 -17 168 -62 238 -118 313 -247
318 -723 11 -977 -69 -57 -177 -112 -255 -129 l-58 -12 0 -776 c0 -854 2 -830
-62 -961 -22 -46 -55 -89 -112 -146 -89 -89 -163 -131 -276 -160 -87 -22 -242
-15 -324 15 -169 60 -303 194 -369 367 l-22 59 -3 798 -2 797 -1043 0 c-1141
0 -1105 -1 -1227 59 -79 40 -136 80 -189 135 -24 25 -48 43 -52 40 -4 -2 -11
1 -15 7 -4 8 -3 9 4 5 18 -11 14 3 -8 34 -36 51 -80 155 -95 226 -28 134 -12
266 50 399 27 59 256 526 1221 2490 113 231 162 301 257 372 153 113 334 155
512 118z m3393 -508 c18 -17 35 -42 38 -54 8 -31 15 -29 47 18 15 21 43 47 62
56 50 24 84 10 113 -47 37 -71 26 -189 -33 -355 -5 -15 -1 -13 15 7 29 37 136
121 187 146 48 25 112 37 147 28 34 -8 60 -59 52 -104 -3 -19 -17 -52 -31 -74
l-26 -39 24 6 c35 9 105 -12 133 -40 36 -36 32 -77 -13 -126 -52 -58 -136 -97
-263 -124 l-55 -12 45 -12 c159 -42 276 -123 296 -203 5 -23 0 -34 -29 -63
-32 -32 -40 -35 -95 -35 l-59 0 23 -47 c28 -54 30 -83 9 -122 -42 -82 -172
-43 -309 92 -43 43 -76 70 -72 60 41 -106 46 -282 10 -344 -26 -44 -57 -60
-97 -48 -38 11 -71 42 -92 86 l-17 34 -27 -44 c-17 -25 -43 -51 -65 -61 -52
-25 -85 -12 -114 44 -21 40 -23 55 -19 135 3 61 12 113 30 163 l25 72 -72 -68
c-108 -100 -221 -149 -285 -122 -65 26 -66 121 -3 193 14 16 12 17 -31 17
-122 0 -174 80 -106 163 38 46 150 101 242 119 37 7 67 15 67 18 0 3 -23 11
-50 17 -126 30 -260 123 -275 192 -14 63 57 118 140 109 l41 -5 -23 45 c-30
59 -30 103 1 139 54 63 168 21 299 -109 44 -43 76 -70 72 -60 -19 50 -35 146
-35 212 1 165 86 236 178 147z m-5358 -731 c0 -2 -8 -10 -17 -17 -16 -13 -17
-12 -4 4 13 16 21 21 21 13z m5344 -1207 c15 -11 36 -39 47 -61 l21 -41 24 40
c60 102 161 99 195 -5 17 -52 5 -184 -24 -270 l-25 -73 68 64 c81 77 180 130
246 131 38 1 50 -4 70 -27 37 -43 27 -111 -23 -168 -13 -15 -8 -17 47 -21 49
-3 65 -9 90 -33 33 -32 38 -61 15 -105 -29 -57 -138 -118 -250 -140 -92 -18
-94 -21 -35 -36 126 -33 228 -95 267 -162 25 -42 25 -45 9 -78 -20 -44 -73
-68 -132 -61 l-42 4 25 -46 c18 -34 23 -56 20 -85 -17 -128 -163 -103 -320 55
-44 43 -76 71 -72 61 33 -85 44 -233 24 -306 -13 -47 -59 -96 -89 -96 -38 0
-81 33 -111 85 -16 28 -29 42 -29 33 0 -25 -71 -95 -103 -104 -36 -8 -71 7
-94 43 -15 22 -18 47 -17 133 1 101 6 126 49 232 4 10 -23 -12 -60 -47 -81
-78 -187 -135 -252 -135 -87 0 -120 78 -69 166 l23 42 -51 6 c-115 13 -151 99
-74 176 52 51 214 118 293 121 11 0 -20 13 -69 30 -128 42 -207 95 -242 161
-21 40 -17 57 20 94 31 31 39 34 94 34 l61 0 -24 43 c-14 23 -25 55 -25 70 0
35 24 82 45 91 67 25 180 -27 282 -131 l71 -73 -15 47 c-20 66 -28 218 -14
269 17 65 46 94 90 94 24 0 49 -8 65 -21z m-5254 -1264 c13 -14 21 -25 18 -25
-2 0 -15 11 -28 25 -13 14 -21 25 -18 25 2 0 15 -11 28 -25z m5240 -680 c16
-8 41 -36 56 -61 l27 -45 17 28 c29 48 78 83 115 83 94 0 124 -166 62 -349
l-23 -70 50 47 c100 94 190 142 266 142 82 0 113 -76 66 -162 l-25 -48 27 0
c81 0 142 -44 142 -103 0 -70 -140 -160 -294 -188 l-66 -13 73 -21 c103 -29
181 -71 227 -121 50 -55 59 -87 33 -122 -28 -38 -60 -52 -119 -52 l-51 0 23
-47 c28 -54 30 -83 9 -122 -16 -32 -33 -41 -78 -41 -69 1 -195 82 -267 173
-22 27 -40 47 -40 45 0 -3 9 -40 20 -83 47 -182 9 -335 -83 -335 -43 0 -81 29
-108 82 l-20 40 -26 -40 c-30 -45 -69 -72 -108 -72 -42 0 -62 16 -81 65 -23
60 -15 184 18 281 l24 72 -69 -64 c-83 -76 -178 -127 -243 -128 -39 -1 -50 3
-71 28 -21 25 -24 37 -20 74 3 24 14 57 26 73 12 15 21 31 21 34 0 3 -18 5
-41 5 -71 0 -129 44 -129 97 0 72 106 146 267 186 l84 21 -53 13 c-135 34
-268 125 -283 192 -14 63 55 116 140 109 l42 -3 -24 44 c-56 107 -2 191 106
162 66 -18 130 -62 207 -144 37 -39 64 -63 60 -52 -19 51 -36 146 -36 209 0
84 15 139 48 171 28 29 60 32 102 10z m-3431 -984 c34 -21 -19 -164 -87 -234
-20 -22 -73 -57 -117 -79 -151 -77 -169 -102 -189 -257 -14 -108 -45 -186 -94
-243 l-32 -35 28 -39 c36 -50 120 -125 175 -157 83 -49 164 -70 297 -76 98 -5
125 -9 125 -20 0 -30 -74 -45 -222 -45 l-141 -1 13 -32 c30 -72 113 -168 193
-222 37 -26 42 -51 10 -51 -38 0 -141 55 -179 96 -19 22 -59 69 -88 106 -97
125 -161 166 -283 184 l-47 6 11 -29 c16 -43 3 -93 -42 -160 -50 -73 -51 -110
-10 -240 37 -116 46 -191 31 -264 -23 -111 -101 -192 -117 -121 -35 159 -59
218 -148 357 -90 142 -119 209 -124 292 -7 105 24 160 131 238 l28 20 -31 68
c-56 124 -74 245 -46 312 12 27 12 42 4 65 -13 39 -6 46 31 31 21 -9 35 -10
49 -2 45 24 99 10 141 -37 16 -19 21 -21 17 -9 -29 87 -10 204 43 268 40 49
153 105 336 169 159 55 219 82 274 124 39 29 40 29 60 17z"/>
<path d="M1358 9313 c7 -3 16 -2 19 1 4 3 -2 6 -13 5 -11 0 -14 -3 -6 -6z"/>
<path d="M1330 9294 c0 -14 42 -70 71 -92 88 -70 194 -95 374 -91 l140 4 3
-117 3 -117 -42 -22 c-24 -12 -83 -32 -133 -44 -100 -26 -89 -34 13 -10 95 23
182 68 230 120 35 38 41 51 41 88 0 34 -6 49 -27 69 -46 44 -73 49 -221 42
-152 -7 -233 6 -320 50 -46 24 -99 72 -120 111 -6 11 -12 15 -12 9z"/>
<path d="M1520 8783 c-55 -4 -80 -16 -80 -37 0 -6 5 -3 11 7 7 12 23 17 57 18
26 0 70 4 97 9 47 7 47 7 10 7 -22 0 -65 -2 -95 -4z"/>
<path d="M1452 8714 c9 -9 21 -15 27 -13 6 2 -2 10 -17 17 -25 11 -25 11 -10
-4z"/>
<path d="M1522 8688 c13 -3 60 -6 105 -7 l83 -1 -88 -88 c-79 -79 -141 -164
-157 -217 -4 -11 8 5 25 37 50 89 166 214 248 268 21 14 12 15 -108 15 -72 0
-121 -3 -108 -7z"/>
<path d="M1205 6934 c-41 -21 -57 -37 -78 -76 -17 -31 -17 -32 0 -8 52 73 116
104 164 80 23 -11 23 -10 5 4 -25 20 -53 20 -91 0z"/>
<path d="M1298 6783 c-9 -32 -15 -59 -13 -61 5 -5 37 97 33 108 -2 5 -11 -16
-20 -47z"/>
<path d="M1096 6805 c-9 -26 -7 -32 5 -12 6 10 9 21 6 23 -2 3 -7 -2 -11 -11z"/>
<path d="M1081 6754 c0 -11 3 -14 6 -6 3 7 2 16 -1 19 -3 4 -6 -2 -5 -13z"/>
<path d="M1071 6714 c0 -11 3 -14 6 -6 3 7 2 16 -1 19 -3 4 -6 -2 -5 -13z"/>
<path d="M1430 6654 c-58 -31 -109 -60 -115 -66 -5 -6 40 16 100 48 86 46 123
60 170 65 l60 6 -55 1 c-49 2 -67 -5 -160 -54z"/>
<path d="M1253 6650 c-13 -5 -23 -14 -23 -20 0 -6 11 -3 25 6 14 9 25 18 25
20 0 5 0 5 -27 -6z"/>
<path d="M1075 6595 c5 -11 9 -30 9 -41 1 -13 6 -20 13 -17 10 4 9 13 -4 36
-18 37 -30 51 -18 22z"/>
<path d="M1270 6565 c-14 -8 -20 -14 -14 -15 5 0 19 7 30 15 24 18 16 19 -16
0z"/>
<path d="M1321 6556 c2 -2 31 -6 64 -9 37 -3 51 -2 35 3 -25 8 -107 13 -99 6z"/>
<path d="M1490 6517 c49 -25 90 -77 90 -112 0 -31 -28 -53 -75 -58 l-40 -4 43
-1 c31 -2 47 3 63 19 48 48 -11 149 -101 173 -14 4 -5 -4 20 -17z"/>
<path d="M1035 6504 l-30 -26 33 22 c17 12 32 23 32 26 0 7 -4 5 -35 -22z"/>
<path d="M1112 6465 c-28 -20 -52 -38 -52 -40 0 -3 25 11 54 31 l55 36 28 -19
c38 -27 53 -35 53 -30 0 4 -77 57 -82 57 -2 0 -27 -16 -56 -35z"/>
<path d="M965 6454 l-30 -26 33 22 c17 12 32 23 32 26 0 7 -4 5 -35 -22z"/>
<path d="M1260 6435 c0 -9 142 -73 175 -80 17 -3 8 3 -20 13 -27 11 -74 31
-102 46 -29 14 -53 24 -53 21z"/>
<path d="M909 6413 c-13 -16 -12 -17 4 -4 16 13 21 21 13 21 -2 0 -10 -8 -17
-17z"/>
<path d="M869 6383 c-13 -16 -12 -17 4 -4 16 13 21 21 13 21 -2 0 -10 -8 -17
-17z"/>
<path d="M999 6383 c-13 -16 -12 -17 4 -4 16 13 21 21 13 21 -2 0 -10 -8 -17
-17z"/>
<path d="M823 6368 c3 -9 1 -19 -6 -21 -7 -2 -9 -7 -6 -11 12 -13 28 19 17 34
-8 13 -9 12 -5 -2z"/>
<path d="M959 6353 c-13 -16 -12 -17 4 -4 16 13 21 21 13 21 -2 0 -10 -8 -17
-17z"/>
<path d="M10222 6315 c-26 -116 -94 -389 -108 -428 -8 -22 -13 -41 -12 -42 7
-5 133 -34 135 -31 2 2 2 129 1 282 -3 258 -4 274 -16 219z"/>
<path d="M916 6325 c-11 -8 -15 -15 -9 -15 6 0 16 7 23 15 16 19 11 19 -14 0z"/>
<path d="M1003 6323 c15 -2 39 -2 55 0 15 2 2 4 -28 4 -30 0 -43 -2 -27 -4z"/>
<path d="M1128 6313 c7 -3 16 -2 19 1 4 3 -2 6 -13 5 -11 0 -14 -3 -6 -6z"/>
<path d="M1195 6287 c23 -13 48 -37 57 -57 10 -19 18 -28 18 -19 0 23 -37 67
-70 84 -46 24 -49 17 -5 -8z"/>
<path d="M709 6253 l-24 -28 28 24 c25 23 32 31 24 31 -2 0 -14 -12 -28 -27z"/>
<path d="M759 6193 l-24 -28 28 24 c25 23 32 31 24 31 -2 0 -14 -12 -28 -27z"/>
<path d="M624 6178 l-29 -33 33 29 c17 17 32 31 32 33 0 8 -8 1 -36 -29z"/>
<path d="M884 6176 c11 -9 24 -16 30 -16 12 0 7 5 -24 19 -24 11 -24 11 -6 -3z"/>
<path d="M679 6123 l-24 -28 28 24 c25 23 32 31 24 31 -2 0 -14 -12 -28 -27z"/>
<path d="M1244 6122 c-15 -19 -35 -28 -70 -33 l-49 -6 42 -2 c34 -1 49 5 75
28 18 16 31 31 28 34 -3 2 -14 -7 -26 -21z"/>
<path d="M473 6085 c0 -22 2 -30 4 -17 2 12 2 30 0 40 -3 9 -5 -1 -4 -23z"/>
<path d="M550 6005 c-19 -19 -30 -35 -24 -34 9 0 70 69 62 69 -2 0 -19 -16
-38 -35z"/>
<path d="M828 5983 c6 -2 18 -2 25 0 6 3 1 5 -13 5 -14 0 -19 -2 -12 -5z"/>
<path d="M1000 5946 c0 -2 7 -7 16 -10 8 -3 12 -2 9 4 -6 10 -25 14 -25 6z"/>
<path d="M1055 5910 c10 -11 20 -20 23 -20 3 0 -3 9 -13 20 -10 11 -20 20 -23
20 -3 0 3 -9 13 -20z"/>
<path d="M1035 5749 c-16 -10 -25 -19 -19 -19 7 0 22 9 35 20 30 24 23 24 -16
-1z"/>
<path d="M918 5723 c7 -3 16 -2 19 1 4 3 -2 6 -13 5 -11 0 -14 -3 -6 -6z"/>
<path d="M818 2503 c7 -3 16 -2 19 1 4 3 -2 6 -13 5 -11 0 -14 -3 -6 -6z"/>
<path d="M918 2503 c7 -3 16 -2 19 1 4 3 -2 6 -13 5 -11 0 -14 -3 -6 -6z"/>
<path d="M968 2493 c7 -3 16 -2 19 1 4 3 -2 6 -13 5 -11 0 -14 -3 -6 -6z"/>
<path d="M1041 2454 c13 -17 26 -30 28 -27 3 2 -8 16 -24 31 l-28 27 24 -31z"/>
<path d="M1072 2380 c0 -19 2 -27 5 -17 2 9 2 25 0 35 -3 9 -5 1 -5 -18z"/>
<path d="M1057 2325 c-4 -8 -21 -24 -39 -35 -18 -11 -27 -20 -21 -20 17 0 80
57 72 65 -4 3 -9 -1 -12 -10z"/>
<path d="M948 2263 c7 -3 16 -2 19 1 4 3 -2 6 -13 5 -11 0 -14 -3 -6 -6z"/>
<path d="M888 2093 c6 -2 18 -2 25 0 6 3 1 5 -13 5 -14 0 -19 -2 -12 -5z"/>
<path d="M1058 2093 c7 -3 16 -2 19 1 4 3 -2 6 -13 5 -11 0 -14 -3 -6 -6z"/>
<path d="M1091 2087 c2 -2 18 -11 34 -21 l30 -17 -24 20 c-13 12 -28 21 -34
21 -6 0 -8 -1 -6 -3z"/>
<path d="M670 2076 c0 -2 8 -10 18 -17 15 -13 16 -12 3 4 -13 16 -21 21 -21
13z"/>
<path d="M1161 2004 c0 -11 3 -14 6 -6 3 7 2 16 -1 19 -3 4 -6 -2 -5 -13z"/>
<path d="M569 1983 c-13 -16 -12 -17 4 -4 9 7 17 15 17 17 0 8 -8 3 -21 -13z"/>
<path d="M760 1946 c0 -2 7 -9 15 -16 9 -7 15 -8 15 -2 0 5 -7 12 -15 16 -8 3
-15 4 -15 2z"/>
<path d="M1130 1930 c-6 -11 -8 -20 -6 -20 3 0 10 9 16 20 6 11 8 20 6 20 -3
0 -10 -9 -16 -20z"/>
<path d="M1080 1895 c-14 -8 -20 -14 -14 -15 5 0 19 7 30 15 24 18 16 19 -16
0z"/>
<path d="M800 1896 c0 -2 8 -10 18 -17 15 -13 16 -12 3 4 -13 16 -21 21 -21
13z"/>
<path d="M710 1886 c0 -2 8 -10 18 -17 15 -13 16 -12 3 4 -13 16 -21 21 -21
13z"/>
<path d="M845 1840 c10 -11 20 -20 23 -20 3 0 -3 9 -13 20 -10 11 -20 20 -23
20 -3 0 3 -9 13 -20z"/>
<path d="M755 1830 c10 -11 20 -20 23 -20 3 0 -3 9 -13 20 -10 11 -20 20 -23
20 -3 0 3 -9 13 -20z"/>
<path d="M870 1807 c0 -2 15 -16 33 -33 l32 -29 -29 33 c-28 30 -36 37 -36 29z"/>
<path d="M795 1780 c10 -11 20 -20 23 -20 3 0 -3 9 -13 20 -10 11 -20 20 -23
20 -3 0 3 -9 13 -20z"/>
<path d="M1213 1753 c9 -2 25 -2 35 0 9 3 1 5 -18 5 -19 0 -27 -2 -17 -5z"/>
<path d="M1315 1753 c49 -10 76 -27 81 -50 4 -13 9 -22 11 -19 3 2 2 14 -2 25
-8 25 -54 51 -87 50 -20 -1 -20 -2 -3 -6z"/>
<path d="M840 1725 c13 -14 26 -25 28 -25 3 0 -5 11 -18 25 -13 14 -26 25 -28
25 -3 0 5 -11 18 -25z"/>
<path d="M1148 1743 c7 -3 16 -2 19 1 4 3 -2 6 -13 5 -11 0 -14 -3 -6 -6z"/>
<path d="M952 1715 c15 -16 29 -27 31 -24 3 2 -10 15 -27 28 l-31 24 27 -28z"/>
<path d="M1098 1733 c6 -2 18 -2 25 0 6 3 1 5 -13 5 -14 0 -19 -2 -12 -5z"/>
<path d="M870 1686 c0 -2 8 -10 18 -17 15 -13 16 -12 3 4 -13 16 -21 21 -21
13z"/>
<path d="M1382 1649 c-7 -11 -27 -28 -45 -39 -18 -11 -26 -20 -19 -20 15 0 89
66 82 74 -3 3 -11 -4 -18 -15z"/>
<path d="M1061 1593 c13 -14 70 -67 126 -118 90 -82 106 -93 149 -99 26 -3 49
-4 52 -2 2 3 -19 8 -48 12 -48 6 -59 14 -161 106 -60 55 -107 103 -104 108 3
4 -5 10 -16 13 -21 6 -20 5 2 -20z"/>
<path d="M1098 1593 c7 -3 16 -2 19 1 4 3 -2 6 -13 5 -11 0 -14 -3 -6 -6z"/>
<path d="M1143 1583 c9 -2 23 -2 30 0 6 3 -1 5 -18 5 -16 0 -22 -2 -12 -5z"/>
<path d="M1278 1583 c7 -3 16 -2 19 1 4 3 -2 6 -13 5 -11 0 -14 -3 -6 -6z"/>
<path d="M1004 1547 c3 -10 6 -26 7 -35 0 -11 3 -12 6 -5 5 14 210 -167 231
-204 7 -13 15 -23 18 -23 18 0 -37 62 -133 149 -62 56 -117 109 -123 119 -11
16 -11 15 -6 -1z"/>
<path d="M822 1470 c0 -19 2 -27 5 -17 2 9 2 25 0 35 -3 9 -5 1 -5 -18z"/>
<path d="M1021 1464 c0 -11 3 -14 6 -6 3 7 2 16 -1 19 -3 4 -6 -2 -5 -13z"/>
<path d="M1470 1342 c90 -33 142 -63 169 -100 11 -15 21 -22 21 -16 0 15 -61
69 -102 90 -37 19 -137 54 -152 53 -6 0 23 -12 64 -27z"/>
<path d="M958 1233 c7 -3 16 -2 19 1 4 3 -2 6 -13 5 -11 0 -14 -3 -6 -6z"/>
<path d="M1319 1202 c46 -59 140 -133 168 -132 4 1 -10 10 -32 22 -22 11 -69
51 -105 87 -44 45 -54 53 -31 23z"/>
<path d="M1661 1187 c-2 -45 -68 -109 -122 -117 -43 -7 -43 -8 -8 -9 65 -2
147 77 136 131 -4 20 -4 19 -6 -5z"/>
</g>
</svg>
