<?xml version="1.0" standalone="no"?>
<!DOCTYPE svg PUBLIC "-//W3C//DTD SVG 20010904//EN"
 "http://www.w3.org/TR/2001/REC-SVG-20010904/DTD/svg10.dtd">
<svg version="1.0" xmlns="http://www.w3.org/2000/svg"
 width="1024.000000pt" height="1024.000000pt" viewBox="0 0 1024.000000 1024.000000"
 preserveAspectRatio="xMidYMid meet">
<metadata>
Created by potrace 1.11, written by Peter Selinger 2001-2013
</metadata>
<g transform="translate(0.000000,1024.000000) scale(0.100000,-0.100000)"
fill="#000000" stroke="none">
<path d="M4858 10235 c-1 -1 -50 -6 -106 -9 -57 -4 -118 -8 -135 -11 -18 -2
-54 -7 -82 -9 -67 -7 -123 -14 -230 -32 -195 -32 -207 -35 -510 -108 -44 -11
-109 -30 -155 -45 -30 -10 -82 -26 -115 -36 -33 -10 -71 -23 -85 -28 -14 -6
-27 -11 -30 -11 -10 -2 -106 -39 -137 -52 -17 -8 -35 -14 -40 -14 -4 -1 -26
-9 -48 -20 -22 -11 -48 -19 -57 -20 -10 0 -18 -4 -18 -10 0 -5 -5 -10 -11 -10
-32 0 -474 -222 -594 -299 -22 -14 -43 -24 -47 -23 -5 1 -8 -2 -8 -8 0 -5 -4
-10 -10 -10 -12 0 -224 -141 -228 -152 -2 -4 -8 -8 -13 -8 -6 0 -30 -15 -54
-32 -24 -18 -69 -51 -99 -73 -30 -22 -55 -43 -56 -47 0 -5 -7 -8 -15 -8 -7 0
-18 -6 -22 -13 -4 -6 -26 -25 -48 -42 -21 -16 -47 -36 -55 -45 -9 -8 -40 -35
-70 -60 -88 -75 -136 -120 -268 -250 -135 -134 -215 -220 -322 -350 -19 -23
-40 -47 -46 -53 -5 -7 -49 -64 -97 -127 -48 -63 -91 -119 -95 -125 -38 -49
-262 -398 -262 -409 0 -2 -17 -33 -38 -67 -55 -90 -202 -393 -257 -527 -25
-61 -51 -124 -57 -140 -6 -15 -12 -31 -13 -37 -2 -5 -14 -40 -28 -77 -15 -38
-24 -68 -20 -68 3 0 1 -6 -5 -12 -8 -10 -39 -104 -66 -203 -2 -5 -6 -17 -9
-25 -5 -13 -31 -110 -43 -162 -2 -10 -6 -26 -8 -35 -18 -69 -51 -226 -62 -292
-3 -18 -8 -43 -10 -55 -4 -18 -15 -94 -29 -191 -3 -16 -7 -57 -10 -90 -3 -33
-8 -69 -10 -80 -26 -124 -26 -847 0 -1006 2 -13 6 -49 9 -79 10 -99 49 -341
81 -500 3 -14 7 -34 9 -45 40 -201 198 -693 276 -860 5 -11 20 -46 34 -77 14
-32 42 -93 62 -135 21 -43 36 -80 35 -82 -2 -2 1 -7 6 -10 12 -9 43 -71 43
-87 0 -8 4 -14 9 -14 5 0 14 -12 20 -27 11 -30 31 -65 123 -218 33 -55 65
-109 71 -120 7 -11 14 -22 17 -25 3 -3 32 -45 65 -95 64 -97 262 -364 282
-380 7 -5 26 -28 43 -50 86 -110 334 -365 480 -495 47 -41 87 -77 90 -80 7 -7
121 -102 140 -117 8 -6 41 -32 72 -57 32 -25 62 -46 68 -46 5 0 10 -3 10 -7 0
-5 17 -19 38 -33 20 -14 39 -27 42 -30 3 -3 46 -33 95 -65 50 -33 92 -63 93
-67 2 -5 10 -8 17 -8 8 0 20 -6 27 -13 7 -7 36 -26 63 -42 28 -16 52 -32 55
-35 3 -3 21 -13 40 -24 19 -10 51 -28 70 -39 90 -52 437 -224 470 -232 3 0 26
-11 52 -23 26 -12 50 -22 53 -22 4 0 21 -7 38 -15 45 -20 166 -66 202 -75 17
-5 54 -17 83 -28 29 -11 54 -21 55 -21 1 0 9 -2 17 -5 13 -4 115 -34 145 -42
73 -20 255 -67 270 -70 11 -2 43 -8 70 -14 50 -10 78 -16 125 -24 120 -22 159
-29 185 -32 17 -2 46 -6 65 -9 19 -3 60 -7 90 -10 30 -4 71 -8 90 -10 221 -26
860 -26 997 -1 10 2 50 7 88 10 39 4 80 8 90 10 11 2 43 7 70 10 81 11 363 66
450 88 44 11 87 22 95 23 63 15 206 57 235 69 19 8 35 13 35 11 0 -6 209 69
365 132 149 59 427 193 560 268 44 24 87 48 95 52 8 3 44 25 80 48 36 23 101
65 145 93 44 28 85 55 90 59 6 5 33 24 60 43 48 32 188 137 230 172 11 9 49
41 85 70 201 164 433 392 615 604 62 73 70 82 169 206 25 31 46 61 46 66 0 6
4 12 8 14 13 5 112 144 112 157 0 7 5 9 10 6 6 -3 10 -1 10 5 0 5 18 37 40 69
22 32 40 63 40 69 0 6 4 12 9 14 16 6 202 340 282 505 44 90 79 165 79 167 0
3 10 26 22 53 11 26 22 53 24 58 1 6 15 39 29 75 74 177 204 599 231 745 2 11
8 43 14 70 6 28 13 66 16 85 3 19 8 38 9 41 2 3 7 28 11 55 3 27 8 58 10 69 9
49 22 140 30 220 3 33 7 71 10 85 25 160 25 851 0 1000 -3 14 -7 50 -10 80 -6
65 -31 240 -42 300 -10 51 -34 177 -44 224 -36 176 -158 583 -210 701 -9 22
-21 51 -25 65 -10 34 -84 206 -134 314 -22 48 -41 92 -41 97 0 5 -3 9 -8 9 -4
0 -20 28 -37 63 -16 34 -44 89 -63 122 -19 33 -43 76 -54 95 -75 131 -273 432
-289 438 -5 2 -9 8 -9 14 0 9 -55 82 -87 116 -7 7 -13 16 -13 20 0 4 -15 23
-33 43 -17 20 -45 53 -61 73 -16 21 -41 50 -55 65 -14 16 -48 54 -76 86 -115
133 -374 383 -529 508 -21 18 -43 37 -50 42 -6 6 -42 35 -81 65 -38 30 -71 58
-73 62 -2 5 -10 8 -18 8 -8 0 -14 5 -14 10 0 6 -6 10 -14 10 -8 0 -16 4 -18 8
-1 4 -32 28 -68 52 -36 25 -66 48 -68 53 -2 4 -8 7 -12 7 -5 0 -37 19 -72 43
-103 70 -237 149 -378 223 -41 21 -78 43 -81 47 -3 5 -12 9 -20 11 -8 1 -66
27 -129 57 -63 31 -142 66 -175 79 -33 13 -64 27 -70 31 -32 23 -391 144 -620
208 -178 50 -554 121 -715 136 -19 1 -62 6 -96 9 -33 4 -83 9 -110 12 -56 6
-650 14 -656 9z"/>
</g>
</svg>
