<?xml version="1.0" standalone="no"?>
<!DOCTYPE svg PUBLIC "-//W3C//DTD SVG 20010904//EN"
 "http://www.w3.org/TR/2001/REC-SVG-20010904/DTD/svg10.dtd">
<svg version="1.0" xmlns="http://www.w3.org/2000/svg"
 width="1280.000000pt" height="1280.000000pt" viewBox="0 0 1280.000000 1280.000000"
 preserveAspectRatio="xMidYMid meet">
<metadata>
Created by potrace 1.11, written by Peter Selinger 2001-2013
</metadata>
<g transform="translate(0.000000,1280.000000) scale(0.100000,-0.100000)"
fill="#000000" stroke="none">
<path d="M5959 10042 c-5 -16 -29 -19 -169 -26 -58 -3 -123 -8 -145 -11 -85
-12 -108 -15 -115 -20 -4 -3 -25 -7 -45 -10 -20 -2 -43 -10 -51 -16 -11 -9
-14 -8 -14 1 0 9 -4 9 -12 3 -7 -6 -21 -9 -31 -8 -9 2 -15 -1 -11 -6 4 -8 -24
-13 -63 -12 -7 1 -13 -4 -13 -9 0 -5 -8 -8 -17 -6 -10 2 -24 -3 -31 -12 -8 -8
-11 -9 -7 -2 3 6 1 12 -4 12 -6 0 -11 -5 -11 -11 0 -5 -4 -8 -9 -5 -5 3 -26
-1 -46 -10 -20 -8 -34 -11 -31 -5 4 5 2 13 -4 16 -6 4 -10 3 -9 -2 1 -4 1 -15
0 -23 -1 -13 -2 -13 -11 0 -7 11 -10 11 -10 2 0 -7 -4 -10 -10 -7 -5 3 -10 2
-10 -2 0 -8 -7 -10 -64 -14 -18 -1 -23 -6 -19 -17 5 -11 3 -13 -8 -6 -22 14
-39 13 -39 -1 0 -9 -8 -11 -22 -7 -14 3 -19 2 -14 -6 5 -8 0 -12 -13 -12 -12
0 -21 -6 -21 -12 0 -10 -3 -9 -9 1 -6 9 -11 10 -15 2 -4 -6 -12 -9 -17 -6 -5
4 -9 1 -9 -4 0 -6 -4 -11 -10 -11 -5 0 -6 8 -3 18 7 16 6 16 -11 0 -9 -10 -15
-22 -11 -27 3 -6 -4 -8 -15 -6 -11 2 -20 0 -20 -6 0 -5 -3 -8 -7 -7 -5 1 -21
-4 -37 -11 -16 -6 -35 -10 -43 -7 -7 3 -12 0 -10 -6 1 -7 -13 -17 -31 -23 -18
-6 -29 -15 -25 -19 4 -4 0 -4 -10 0 -9 3 -17 2 -17 -4 0 -6 -11 -9 -25 -7 -17
1 -25 -3 -26 -14 0 -9 -3 -11 -5 -4 -4 8 -12 5 -25 -8 -11 -11 -27 -18 -35
-15 -8 3 -14 -1 -14 -10 0 -8 -6 -14 -12 -13 -27 3 -38 -2 -38 -17 0 -12 -3
-14 -13 -6 -15 13 -43 -1 -33 -16 4 -7 -3 -9 -18 -6 -17 3 -25 -1 -29 -16 -3
-11 -11 -20 -17 -20 -8 0 -9 5 -4 13 5 7 2 5 -7 -5 -9 -9 -19 -14 -23 -11 -3
4 -6 -1 -6 -10 0 -11 -8 -17 -25 -17 -19 0 -23 -4 -18 -17 5 -15 3 -16 -8 -5
-18 17 -27 15 -34 -8 -3 -11 -14 -20 -24 -20 -10 0 -23 -10 -30 -22 -6 -13 -9
-15 -7 -6 4 15 2 16 -13 6 -10 -6 -26 -23 -35 -37 -11 -16 -15 -19 -12 -7 5
15 4 17 -7 8 -8 -7 -18 -8 -23 -4 -4 4 -2 -2 6 -12 11 -14 11 -18 2 -12 -8 5
-19 1 -28 -10 -9 -11 -13 -14 -10 -7 4 6 2 15 -4 18 -6 4 -10 3 -9 -2 5 -19
-13 -41 -28 -36 -11 4 -14 2 -9 -5 4 -7 1 -12 -8 -12 -9 0 -16 -7 -16 -16 0
-13 -3 -14 -14 -5 -12 10 -13 8 -9 -8 4 -17 0 -22 -26 -27 -17 -4 -34 -11 -37
-15 -3 -5 -10 -6 -16 -3 -5 4 -4 -4 3 -17 11 -22 11 -23 -4 -10 -15 11 -17 11
-17 -2 0 -9 -5 -19 -12 -23 -7 -4 -8 -3 -4 4 4 7 2 12 -3 12 -6 0 -11 -5 -11
-10 0 -6 -3 -9 -7 -9 -19 3 -27 -2 -15 -10 11 -6 6 -14 -20 -31 -18 -13 -39
-30 -47 -39 -12 -14 -13 -14 -7 3 5 15 4 17 -7 8 -8 -7 -18 -8 -23 -4 -4 4 -2
-2 6 -12 10 -13 10 -17 3 -12 -7 4 -13 2 -13 -3 0 -6 -5 -10 -12 -9 -11 3 -13
-1 -17 -34 -1 -9 -4 -8 -11 2 -7 11 -10 11 -10 2 0 -8 -5 -10 -12 -6 -9 5 -9
2 1 -9 12 -15 11 -17 -4 -17 -10 0 -15 -5 -12 -14 4 -9 -2 -12 -19 -10 -22 2
-23 0 -12 -14 10 -12 10 -14 1 -8 -8 4 -13 2 -13 -4 0 -6 -4 -9 -9 -5 -5 3
-13 0 -17 -6 -4 -8 -3 -9 4 -5 7 4 12 3 12 -2 0 -5 -9 -12 -21 -15 -11 -3 -23
-14 -26 -25 -2 -11 -17 -26 -31 -33 -35 -18 -57 -39 -42 -39 6 0 8 -5 5 -10
-5 -8 -12 -7 -22 2 -14 11 -15 10 -8 -11 5 -16 4 -21 -4 -17 -6 4 -11 2 -11
-4 0 -6 -5 -8 -12 -4 -8 5 -7 0 2 -11 14 -17 14 -18 -7 -6 -19 10 -22 9 -17
-4 4 -9 3 -15 -2 -14 -24 4 -34 -5 -57 -51 -13 -27 -28 -46 -32 -42 -5 4 -5
-1 -2 -11 5 -14 2 -20 -13 -24 -11 -3 -20 -12 -20 -19 0 -8 -5 -14 -11 -14 -8
0 -7 -5 1 -15 11 -13 10 -14 -5 -8 -15 5 -17 3 -12 -12 7 -16 5 -16 -10 -4
-11 9 -14 10 -9 2 4 -7 2 -13 -3 -13 -6 0 -10 -4 -9 -9 2 -5 -6 -17 -17 -26
-11 -9 -13 -13 -5 -9 13 7 13 5 1 -9 -7 -9 -17 -15 -21 -12 -5 3 -10 -5 -12
-17 -2 -13 -9 -23 -17 -23 -8 0 -15 -8 -17 -18 -4 -32 -14 -48 -23 -42 -5 3
-13 0 -17 -6 -4 -7 -3 -9 3 -6 6 4 13 0 16 -7 4 -10 0 -13 -14 -11 -18 4 -19
2 -8 -11 7 -8 8 -14 3 -13 -22 4 -33 -2 -28 -16 6 -14 -6 -20 -29 -16 -5 1 -6
-3 -2 -9 3 -6 11 -7 17 -4 7 4 7 1 0 -12 -13 -23 -47 -65 -36 -45 5 10 3 12
-5 7 -9 -6 -9 -11 1 -24 11 -13 11 -15 -4 -10 -10 4 -19 1 -22 -8 -3 -9 -1
-12 4 -9 6 3 10 1 10 -4 0 -6 -10 -11 -22 -11 -19 0 -20 -2 -8 -10 11 -7 11
-10 2 -10 -7 0 -10 -5 -7 -10 3 -6 -1 -13 -10 -16 -12 -5 -13 -9 -4 -21 10
-11 9 -13 -2 -11 -8 2 -13 -4 -13 -14 1 -10 -5 -18 -15 -19 -9 0 -11 -3 -4 -5
8 -4 5 -12 -8 -25 -11 -11 -18 -27 -15 -35 3 -8 -1 -14 -10 -14 -11 0 -13 -6
-9 -21 5 -16 4 -19 -6 -14 -9 6 -11 4 -6 -8 4 -12 2 -14 -11 -10 -14 6 -15 4
-4 -9 10 -13 10 -17 -3 -22 -8 -3 -15 -15 -15 -26 0 -14 -4 -19 -12 -14 -8 5
-9 0 -6 -14 5 -16 1 -22 -10 -23 -10 0 -12 -3 -5 -5 8 -4 8 -12 -2 -31 -8 -15
-11 -31 -8 -36 4 -6 0 -8 -9 -5 -10 4 -15 0 -15 -10 0 -35 -3 -43 -15 -36 -7
4 -8 3 -4 -4 3 -6 -2 -30 -13 -54 -28 -61 -51 -135 -58 -183 -3 -22 -9 -45
-14 -51 -5 -6 -4 -15 3 -22 9 -9 9 -12 -1 -12 -8 0 -11 -6 -7 -16 5 -12 2 -15
-10 -10 -13 5 -14 3 -6 -6 7 -9 6 -18 -3 -32 -8 -10 -11 -24 -8 -32 3 -8 1
-14 -5 -14 -10 0 -31 -96 -35 -162 -1 -21 -5 -38 -8 -38 -3 0 -5 -18 -4 -41 1
-22 -5 -52 -14 -67 -10 -19 -15 -56 -15 -124 -1 -53 -4 -94 -8 -91 -10 5 -10
-11 -1 -21 9 -9 11 -46 3 -46 -8 0 -6 -37 3 -46 3 -4 2 -15 -4 -25 -7 -14 -6
-19 3 -19 10 0 10 -2 -1 -9 -9 -6 -10 -10 -2 -16 9 -5 9 -10 1 -20 -8 -10 -8
-15 0 -20 8 -5 8 -10 0 -20 -8 -10 -8 -15 0 -20 8 -5 8 -10 0 -20 -8 -9 -8
-15 0 -20 7 -4 7 -12 0 -25 -7 -13 -7 -21 0 -25 7 -4 7 -13 0 -26 -8 -13 -7
-19 0 -19 6 0 8 -5 4 -12 -13 -21 -10 -62 6 -76 8 -8 10 -11 3 -8 -8 5 -9 -3
-2 -29 6 -19 7 -39 4 -44 -3 -5 -1 -13 5 -16 8 -5 8 -11 0 -20 -7 -9 -8 -15
-1 -19 6 -4 7 -15 2 -29 -6 -14 -4 -32 6 -50 8 -15 12 -40 10 -56 -3 -15 2
-45 10 -67 8 -21 14 -49 14 -62 0 -13 3 -21 8 -18 5 4 8 -2 6 -11 -1 -10 2
-24 8 -30 6 -9 6 -13 -2 -13 -7 0 -9 -5 -6 -10 4 -6 9 -8 13 -6 4 2 7 -15 7
-39 0 -24 4 -41 9 -38 5 4 7 -3 4 -15 -4 -12 -3 -20 2 -17 4 3 10 -2 14 -10 3
-8 0 -15 -6 -15 -7 0 -6 -5 2 -15 6 -8 9 -19 6 -24 -4 -5 -1 -13 5 -17 8 -5 9
-3 4 6 -5 9 -4 11 3 6 8 -5 9 -13 2 -26 -7 -13 -6 -21 5 -30 8 -7 13 -16 10
-20 -3 -5 1 -11 7 -13 10 -4 10 -6 0 -6 -10 -1 -10 -5 2 -17 9 -8 14 -20 11
-25 -4 -5 -1 -9 5 -9 6 0 8 -4 5 -10 -3 -5 -1 -10 5 -10 6 0 8 -5 5 -11 -4 -5
1 -20 12 -31 18 -21 18 -21 -2 -14 -17 6 -16 4 5 -20 14 -15 19 -24 13 -20 -9
5 -11 2 -7 -8 3 -9 12 -16 19 -16 17 0 26 -25 14 -37 -12 -12 -1 -63 12 -63 5
0 9 -7 9 -16 0 -8 7 -22 15 -30 8 -9 15 -21 15 -27 0 -7 -4 -6 -10 3 -6 9 -10
10 -10 3 0 -6 7 -19 16 -28 9 -8 13 -22 10 -30 -3 -8 -2 -14 2 -14 4 1 14 1
22 0 12 -1 12 -3 2 -10 -10 -6 -9 -11 4 -22 15 -12 17 -12 9 0 -5 10 -4 12 3
7 8 -5 9 -13 2 -25 -7 -14 -5 -23 10 -36 11 -10 17 -22 14 -26 -3 -5 -1 -9 5
-9 6 0 7 -7 4 -17 -4 -10 -2 -14 4 -10 6 4 16 0 23 -8 11 -13 10 -14 -6 -8
-11 4 -3 -9 19 -30 38 -38 50 -60 20 -36 -10 7 -8 2 4 -12 18 -20 20 -28 10
-38 -9 -10 -9 -11 4 -6 9 3 22 -2 30 -11 8 -10 9 -15 2 -11 -6 4 -14 3 -18 -3
-3 -5 1 -10 9 -10 9 0 16 -6 16 -12 0 -7 12 -24 25 -37 14 -13 25 -30 25 -38
0 -9 8 -22 18 -30 16 -14 16 -14 -1 -9 -11 4 -16 2 -11 -5 3 -6 15 -8 26 -6
16 4 17 3 7 -9 -11 -13 -4 -18 22 -16 3 1 6 -5 6 -13 0 -8 -5 -12 -10 -8 -5 3
-4 -4 2 -16 7 -11 20 -21 30 -21 10 0 25 -8 32 -17 8 -10 9 -14 2 -10 -6 4
-14 3 -18 -3 -5 -9 6 -14 26 -12 3 0 11 -9 19 -21 12 -21 12 -21 -6 -7 -18 14
-18 14 -4 -5 8 -11 25 -30 38 -43 13 -12 20 -27 17 -32 -3 -6 2 -10 13 -10 10
0 29 -12 43 -27 l24 -28 -26 23 c-19 17 -26 19 -26 8 0 -8 4 -13 9 -10 4 3 11
-2 14 -10 3 -9 14 -16 24 -16 11 0 21 -4 24 -9 4 -5 -4 -7 -16 -5 l-23 5 23
-12 c12 -7 22 -17 22 -24 0 -7 10 -17 23 -24 13 -7 14 -9 4 -6 -11 3 -3 -10
19 -30 23 -22 44 -33 53 -30 8 3 12 3 8 -1 -10 -10 13 -35 26 -27 6 3 7 1 3
-6 -4 -6 -13 -9 -19 -5 -7 3 -4 -1 5 -9 10 -8 14 -18 10 -22 -4 -5 -1 -5 6 -1
7 4 9 12 6 18 -4 7 -2 8 4 4 7 -4 12 -13 12 -21 0 -7 7 -16 16 -19 9 -3 12
-11 8 -18 -6 -10 -4 -10 8 0 13 10 18 10 24 1 5 -8 3 -9 -6 -4 -9 5 -11 4 -6
-3 4 -7 14 -12 22 -12 8 0 14 -7 14 -16 0 -9 5 -12 13 -8 7 5 6 0 -3 -11 -8
-10 -10 -16 -4 -12 6 3 17 -3 24 -14 8 -10 24 -19 35 -20 20 0 20 0 0 -9 -19
-8 -19 -9 2 -9 12 -1 26 -7 30 -15 11 -18 69 -47 78 -38 5 4 6 2 2 -3 -3 -6
-2 -17 4 -25 7 -13 9 -13 9 -1 0 11 5 10 19 -5 10 -10 16 -23 13 -28 -3 -5 2
-7 11 -3 17 6 41 -15 30 -27 -4 -4 1 -4 11 0 14 5 17 4 12 -4 -4 -7 -2 -12 4
-12 6 0 8 -5 4 -12 -5 -8 -2 -9 9 -5 15 6 22 -3 18 -25 0 -5 2 -7 7 -7 21 4
43 -2 38 -10 -3 -5 2 -8 12 -7 11 0 16 -6 16 -17 -2 -14 1 -15 12 -6 11 9 20
6 43 -14 17 -14 27 -29 23 -33 -4 -5 2 -2 12 6 11 8 17 10 13 3 -8 -13 26 -37
37 -25 4 3 4 -1 0 -11 -4 -13 -2 -16 9 -11 9 3 21 -3 29 -15 8 -12 18 -18 22
-14 4 4 18 -6 32 -22 14 -17 23 -24 19 -17 -9 18 12 15 23 -3 4 -9 18 -17 30
-18 24 -1 29 -12 10 -20 -10 -4 -10 -6 -1 -6 6 -1 14 3 18 8 3 5 16 0 29 -12
13 -13 34 -23 47 -24 12 -1 26 -9 31 -17 5 -8 18 -13 29 -11 17 4 19 2 8 -11
-10 -13 -8 -13 14 -5 20 8 26 7 24 -2 -1 -7 8 -12 19 -11 16 0 20 -4 16 -14
-4 -11 -1 -13 8 -7 8 5 18 1 27 -10 9 -13 13 -14 13 -5 0 9 4 8 14 -5 8 -11
19 -16 30 -12 10 4 15 3 11 -3 -3 -6 -1 -10 5 -10 6 0 9 -4 6 -8 -3 -5 1 -9 9
-9 8 0 11 5 8 11 -4 6 1 5 10 -3 9 -7 24 -11 32 -7 9 3 14 2 11 -3 -3 -5 2
-15 11 -22 12 -10 14 -10 9 -1 -4 6 -3 12 2 12 6 0 13 -7 16 -16 4 -9 13 -14
21 -10 9 3 18 -1 21 -9 3 -7 12 -11 20 -8 8 3 14 -1 14 -8 0 -12 2 -12 9 -1 7
11 11 11 22 -1 14 -14 56 -27 95 -30 14 -1 20 -7 16 -16 -3 -9 -1 -12 6 -7 7
4 12 2 12 -3 0 -6 5 -11 11 -11 5 0 8 4 4 10 -3 5 7 3 22 -5 15 -8 40 -15 55
-15 15 0 30 -5 34 -11 3 -6 15 -8 26 -6 11 3 21 0 25 -9 3 -8 9 -12 13 -9 5 3
14 -3 20 -12 11 -17 11 -17 6 1 -6 17 -5 18 17 3 17 -11 28 -12 34 -6 7 7 16
4 26 -11 10 -14 17 -18 22 -10 5 8 11 8 19 1 7 -6 16 -8 19 -4 4 3 7 0 7 -8 0
-11 2 -11 10 1 7 11 10 11 10 2 0 -7 4 -11 9 -8 5 4 12 0 14 -6 4 -10 6 -9 6
1 1 11 4 11 18 0 15 -12 16 -12 8 1 -7 12 -6 13 6 3 14 -11 50 -19 123 -28 21
-2 43 -9 50 -14 7 -6 17 -6 26 -1 10 6 21 3 34 -8 14 -13 17 -13 11 -2 -8 13
-7 13 8 1 10 -8 20 -11 24 -8 3 4 12 2 20 -4 10 -9 13 -8 13 0 0 7 4 10 8 7 5
-3 25 -6 45 -8 21 -1 37 -7 37 -13 0 -5 5 -3 10 5 7 11 10 11 10 2 0 -7 4 -10
10 -7 5 3 10 0 10 -7 0 -10 2 -10 9 1 6 9 11 10 15 2 4 -6 15 -7 29 -2 14 5
30 5 40 0 11 -7 17 -6 17 1 0 7 6 8 17 1 10 -5 26 -5 40 0 14 5 23 5 23 -1 0
-6 9 -6 23 -1 13 5 30 6 37 1 7 -5 24 -4 36 0 14 6 26 5 29 0 4 -7 13 -6 26 0
13 8 19 7 19 0 0 -7 6 -8 19 0 13 7 22 7 26 0 4 -7 12 -7 25 0 13 7 21 7 25 0
5 -8 11 -8 19 -1 7 6 16 8 20 4 10 -10 36 -13 36 -4 0 9 31 8 47 -2 6 -4 22
-3 35 2 14 5 31 6 38 1 7 -5 24 -4 37 1 16 6 23 5 23 -3 0 -7 7 -5 18 4 12 11
41 16 97 17 62 1 83 6 94 19 12 15 13 15 8 0 -6 -18 7 -18 41 0 14 9 22 9 22
2 0 -7 6 -8 18 -1 11 6 24 6 37 -2 18 -9 18 -9 7 5 -11 14 -9 16 10 16 70 1
114 9 124 21 8 10 13 11 18 3 4 -6 13 -9 21 -6 8 4 12 11 8 18 -4 6 2 4 12 -4
15 -12 17 -12 10 -1 -6 11 -4 13 7 9 8 -4 21 -2 29 2 8 5 19 4 26 -2 11 -8 12
-7 7 7 -5 13 -4 16 5 11 6 -4 18 -2 26 4 12 10 15 10 15 0 0 -10 3 -10 15 0 8
6 19 9 25 5 5 -3 10 1 10 10 0 12 4 14 19 5 14 -7 22 -7 26 1 4 6 13 8 21 5 8
-3 14 1 14 10 0 12 4 12 20 4 16 -9 20 -8 20 6 0 11 6 15 19 11 11 -3 30 2 42
11 14 10 19 11 14 3 -6 -10 -2 -11 16 -6 13 4 26 12 27 16 2 5 14 9 27 9 13 0
27 5 30 10 5 8 11 8 20 0 11 -9 16 -6 25 11 10 17 14 19 21 8 7 -12 9 -12 9 0
0 8 6 11 16 7 8 -3 13 -2 10 3 -9 14 20 21 34 8 10 -9 12 -8 7 4 -6 17 36 44
53 34 5 -3 11 -1 15 5 3 5 15 10 26 10 13 0 18 4 13 12 -5 8 -2 9 9 5 10 -3
17 -2 17 4 0 6 5 7 10 4 6 -3 10 -1 10 5 0 6 5 8 10 5 6 -3 10 -1 10 4 0 6 7
11 15 11 8 0 15 5 15 11 0 8 5 7 16 -1 12 -11 15 -11 12 1 -2 9 7 15 25 17 20
3 27 8 23 18 -4 12 -2 12 14 4 16 -9 18 -8 13 6 -4 12 -3 15 5 10 7 -4 12 -2
12 6 0 11 2 10 9 0 6 -11 10 -10 15 3 3 9 12 15 19 13 15 -6 48 27 39 39 -4 4
0 2 8 -4 19 -18 30 -16 30 3 0 14 2 15 17 3 15 -12 16 -12 11 7 -3 13 0 21 8
21 7 0 11 -5 8 -11 -3 -6 1 -3 9 7 8 9 20 17 26 17 7 0 9 4 6 10 -4 6 1 7 11
3 13 -5 15 -3 9 8 -7 11 -5 11 10 -1 11 -9 16 -10 11 -3 -4 8 -2 13 4 13 6 0
8 5 4 11 -5 8 -1 8 14 0 18 -10 20 -9 17 10 -4 17 -2 19 11 8 12 -10 13 -9 8
5 -5 12 0 16 21 16 14 0 24 4 20 9 -3 6 4 8 15 6 11 -2 18 0 16 4 -3 5 4 17
17 27 14 13 18 14 12 4 -6 -9 -2 -7 9 5 10 11 23 19 28 17 5 -1 7 2 4 7 -4 5
-2 12 4 16 5 3 10 0 10 -7 1 -7 8 -1 16 15 8 15 17 27 20 27 2 0 0 -9 -6 -20
-6 -11 -8 -20 -6 -20 3 0 12 12 20 28 8 15 15 21 16 14 0 -7 5 -10 10 -7 6 4
8 10 5 15 -3 4 2 11 11 14 10 4 13 2 8 -6 -5 -7 -3 -8 5 -4 7 5 10 15 6 23 -4
12 -3 13 8 5 19 -16 30 -3 14 16 -10 13 -8 14 12 7 17 -5 21 -4 16 5 -4 7 1
13 14 17 12 3 21 9 21 13 0 4 9 10 21 13 12 3 18 10 14 17 -3 6 -1 9 6 8 7 -2
14 3 15 10 3 25 5 27 13 14 6 -10 10 -7 15 12 3 14 11 26 17 26 8 0 7 -5 -1
-15 -11 -13 -10 -14 4 -9 9 3 16 13 16 21 0 10 7 14 20 10 11 -3 23 0 27 5 3
6 1 8 -4 5 -6 -4 -13 0 -16 8 -4 9 -1 12 9 8 9 -3 14 1 14 12 0 15 2 15 16 5
8 -8 14 -9 13 -4 -4 21 2 35 11 29 14 -9 13 8 -2 23 -8 8 -5 10 16 6 18 -3 25
-1 21 6 -5 9 7 14 27 11 4 0 4 7 1 16 -4 10 -2 14 5 9 7 -4 10 1 7 15 -4 17
-2 19 10 9 12 -10 15 -9 16 6 1 11 1 23 0 28 -1 5 4 4 13 -3 11 -10 17 -8 28
8 8 12 17 18 21 15 3 -3 4 6 3 21 -2 18 1 25 9 21 12 -4 30 20 27 36 -1 3 10
5 23 4 20 -3 23 0 15 15 -9 15 -7 17 11 14 18 -4 19 -2 7 12 -9 12 -9 15 0 9
7 -4 12 -2 12 4 0 6 4 9 9 6 5 -4 7 4 4 16 -4 21 -4 22 10 5 14 -16 15 -16 15
8 0 14 -5 22 -11 18 -6 -3 -7 -1 -3 5 4 6 14 8 24 5 9 -3 14 -2 10 2 -5 5 5
20 21 34 16 14 30 35 33 46 2 11 11 20 20 20 9 0 20 4 25 9 4 5 3 6 -4 2 -7
-4 -13 -3 -13 2 0 6 7 13 16 16 9 4 14 13 10 22 -3 8 -2 12 4 9 9 -6 14 7 11
27 0 4 7 4 16 1 12 -5 14 -3 8 7 -6 10 -4 12 7 8 11 -5 14 0 10 18 -3 16 1 26
12 30 9 3 16 14 17 23 0 10 2 11 6 4 2 -7 9 -13 15 -13 6 0 8 7 4 15 -3 8 2
19 11 23 10 6 14 16 9 27 -5 15 -4 16 9 5 13 -11 14 -10 9 4 -6 15 5 21 29 17
5 -1 6 3 2 9 -3 6 -11 8 -16 5 -18 -12 -8 5 21 35 17 17 30 41 30 54 0 13 9
34 21 47 l20 24 -17 -30 -16 -30 20 24 c11 14 19 33 17 42 -2 10 4 24 13 31
16 12 16 11 2 -7 -14 -18 -13 -19 1 -8 9 7 19 9 24 5 4 -4 3 2 -2 12 -12 21 2
66 20 66 5 0 7 7 3 15 -3 9 0 15 10 15 12 0 13 4 3 21 -9 17 -8 20 2 14 9 -6
11 -2 7 13 -4 12 -2 20 3 16 5 -3 9 0 9 6 0 6 6 8 13 4 6 -4 9 -4 5 1 -4 4 -2
15 4 24 10 13 10 14 -2 4 -8 -7 -19 -13 -24 -13 -6 0 1 8 15 18 14 9 24 23 22
30 -3 6 0 12 5 12 6 0 12 10 14 23 2 12 8 22 15 22 6 0 15 4 20 9 4 5 3 6 -4
3 -22 -13 -20 18 3 40 15 13 20 24 13 28 -6 4 -3 19 11 42 11 19 18 39 15 44
-4 5 0 9 7 9 11 0 10 2 0 9 -11 7 -11 9 1 14 8 3 15 18 15 33 0 15 8 33 18 41
10 7 12 13 6 13 -7 0 -12 5 -12 11 0 5 5 7 11 4 6 -4 9 -1 8 6 -2 15 6 42 22
72 5 10 7 22 4 27 -3 4 1 11 7 13 9 4 9 6 -1 6 -11 1 -10 5 5 16 10 8 14 15 7
15 -7 0 -10 7 -7 15 4 8 10 13 14 10 5 -3 6 5 2 17 -4 16 -2 19 9 13 12 -8 12
-6 0 8 -10 13 -10 17 -1 17 9 0 9 4 -1 17 -8 9 -9 14 -3 10 7 -4 14 0 18 8 3
8 0 15 -6 15 -7 0 -3 7 8 15 14 10 15 14 5 15 -11 0 -12 3 -4 11 6 6 9 18 6
25 -3 8 0 14 7 14 9 0 9 4 -1 17 -12 14 -12 16 0 8 11 -6 13 -4 8 8 -3 8 1 21
9 28 11 9 12 15 3 25 -9 11 -8 14 1 14 7 0 10 7 7 15 -4 8 -2 17 4 21 6 4 6
11 -2 20 -9 11 -8 14 2 14 10 0 10 3 1 12 -8 8 -8 17 -1 30 5 10 7 23 4 29 -4
5 -1 16 5 24 7 8 9 15 5 15 -4 0 -3 6 2 13 11 14 11 27 0 45 -5 7 -4 12 3 12
6 0 8 5 4 12 -11 17 -12 48 -3 48 5 0 5 7 2 17 -5 12 -3 14 8 8 12 -7 12 -6 1
7 -9 12 -10 18 -2 23 7 4 10 39 9 95 -1 48 1 93 5 99 4 6 2 11 -4 11 -6 0 -8
5 -4 11 13 22 10 119 -5 124 -10 4 -11 8 -1 20 10 12 9 16 -4 21 -12 5 -14 10
-6 19 5 6 7 15 3 19 -9 9 -11 46 -3 46 6 0 6 35 0 50 -6 15 -4 37 5 49 7 11 7
13 -1 8 -12 -7 -28 48 -18 64 3 5 0 9 -7 9 -7 0 -8 5 -3 13 15 20 3 73 -20 89
-8 6 -8 8 0 8 11 0 12 28 1 46 -8 13 -20 73 -19 97 0 9 -5 17 -11 17 -7 0 -6
4 3 10 11 7 11 10 2 10 -7 0 -10 5 -7 10 3 6 1 10 -6 10 -7 0 -9 10 -7 25 3
13 1 22 -3 19 -8 -5 -13 30 -6 40 1 2 -7 14 -17 25 -20 22 -20 22 0 15 17 -7
17 -6 6 9 -8 9 -11 21 -7 27 3 5 -1 13 -10 16 -13 6 -14 8 -3 15 10 7 11 9 0
9 -7 0 -10 5 -7 10 3 6 2 10 -2 10 -5 0 -10 10 -10 22 -1 13 -7 24 -12 26 -8
3 -7 10 0 24 6 12 7 18 1 14 -11 -7 -25 21 -16 35 3 5 0 9 -5 9 -6 0 -11 9
-11 20 0 11 -6 23 -14 26 -8 3 -12 13 -9 25 3 10 1 19 -5 19 -6 0 -9 11 -7 25
1 14 -2 28 -8 32 -6 3 -7 1 -3 -5 4 -7 3 -12 -2 -12 -6 0 -12 7 -16 15 -3 8 0
15 7 15 8 0 7 4 -3 10 -8 5 -11 12 -7 16 4 4 -1 13 -11 21 -9 8 -11 12 -5 8 9
-4 11 -1 7 9 -3 9 -11 16 -16 16 -6 0 -8 7 -5 15 4 8 2 17 -3 20 -6 4 -10 17
-10 31 0 13 -6 24 -13 24 -14 0 -43 40 -39 54 2 5 -2 12 -8 16 -6 4 -12 17
-13 29 -1 13 -6 20 -14 17 -7 -3 -15 0 -19 6 -4 7 -3 8 4 4 7 -4 12 -1 12 9 0
8 -7 18 -16 22 -11 4 -12 8 -4 13 7 5 6 11 -6 21 -16 12 -17 12 -9 -1 8 -13 7
-13 -8 -1 -18 14 -23 26 -8 16 5 -3 12 -1 16 5 3 5 -1 10 -10 10 -9 0 -15 7
-13 16 2 10 -4 19 -12 21 -13 4 -13 3 0 -7 13 -10 13 -11 0 -7 -8 2 -14 11
-12 21 2 9 -4 16 -13 16 -8 0 -15 5 -15 11 0 5 4 8 9 4 5 -3 13 -1 16 5 4 6 1
9 -6 8 -7 -2 -18 7 -24 20 -7 12 -21 29 -31 37 -10 7 -16 17 -12 20 4 4 0 14
-8 22 -8 8 -11 20 -7 26 4 7 -1 6 -10 -2 -15 -12 -17 -12 -12 2 4 8 1 18 -6
23 -8 5 -10 3 -4 -7 8 -12 6 -12 -8 0 -18 14 -23 26 -8 16 5 -3 12 -1 16 5 3
5 -1 10 -9 10 -9 0 -16 4 -16 10 0 5 -11 20 -24 33 -19 19 -22 27 -13 37 9 10
9 11 0 6 -7 -4 -13 -2 -13 4 0 7 -7 10 -17 6 -15 -5 -14 -3 2 9 19 15 19 16
-5 13 -17 -2 -24 1 -22 11 1 7 -5 20 -15 28 -10 8 -11 11 -3 7 8 -4 -2 8 -23
28 -20 19 -34 38 -30 43 5 4 0 5 -11 1 -13 -4 -17 -2 -13 8 4 10 1 13 -9 9 -8
-3 -14 -2 -13 3 4 22 -2 44 -12 44 -5 0 -7 -5 -3 -12 4 -6 3 -8 -4 -5 -5 4 -8
16 -5 27 4 14 -1 21 -21 26 -14 3 -24 10 -21 14 3 4 -2 11 -11 14 -8 3 -12 11
-8 17 4 8 3 9 -4 5 -11 -7 -17 6 -13 28 1 5 -6 3 -15 -5 -16 -12 -17 -12 -11
5 6 14 4 17 -9 12 -12 -4 -15 -2 -10 9 3 8 2 14 -2 14 -24 -4 -34 3 -29 21 3
10 2 19 -2 18 -3 0 -15 0 -26 2 l-20 1 20 10 c18 8 17 9 -6 6 -16 -2 -26 1
-26 9 0 7 5 10 10 7 6 -4 7 -1 3 6 -5 7 -14 10 -22 7 -14 -6 -46 32 -38 45 2
4 -5 6 -17 4 -18 -4 -19 -2 -7 12 9 12 9 15 1 9 -8 -4 -13 -2 -13 4 0 6 -4 8
-10 5 -5 -3 -10 -2 -10 3 0 6 -10 8 -22 5 -23 -5 -23 -5 -3 10 20 16 19 16 -4
10 -16 -4 -22 -2 -18 4 4 6 0 14 -9 17 -8 3 -12 11 -8 17 5 8 3 9 -6 4 -9 -6
-24 4 -48 31 -23 27 -30 31 -21 14 l12 -25 -20 20 c-11 11 -19 23 -16 28 2 4
-1 7 -7 7 -6 0 -9 4 -6 8 2 4 -5 14 -17 21 -18 11 -20 11 -9 0 6 -7 12 -18 12
-23 0 -6 -11 6 -25 27 -14 20 -37 40 -50 43 -14 3 -23 9 -22 13 2 3 -4 14 -15
24 -10 9 -18 13 -18 8 0 -13 -28 -7 -43 9 -10 12 -9 12 6 1 27 -21 20 -7 -10
18 -23 21 -25 21 -20 5 7 -18 6 -18 -6 -2 -8 10 -18 14 -22 10 -4 -4 -5 3 -2
15 4 20 3 21 -15 12 -16 -9 -19 -8 -13 2 6 9 3 11 -8 6 -10 -4 -16 -2 -14 5 1
7 -7 14 -18 16 -26 5 -46 22 -39 33 3 5 -2 6 -11 3 -10 -4 -21 1 -30 12 -7 10
-22 19 -32 19 -10 0 -17 5 -16 11 1 8 -6 10 -19 6 -14 -3 -19 -1 -14 6 4 7 1
12 -8 12 -8 0 -18 5 -22 12 -5 7 -3 8 6 3 9 -5 11 -4 6 3 -5 9 -13 9 -26 2
-16 -9 -18 -8 -13 6 4 12 3 15 -5 10 -6 -4 -20 2 -32 14 -11 11 -23 21 -27 21
-19 3 -39 13 -55 27 -12 10 -18 11 -18 4 0 -7 5 -12 12 -12 6 0 9 -3 5 -6 -3
-3 -19 4 -35 16 -17 12 -35 20 -40 16 -6 -3 -14 -1 -18 5 -5 8 -3 9 7 4 8 -5
10 -4 6 0 -4 5 -14 10 -21 11 -32 5 -56 16 -56 27 0 7 -4 6 -10 -3 -8 -12 -10
-12 -10 5 0 17 -2 17 -10 5 -7 -11 -10 -11 -10 -2 0 7 -4 10 -10 7 -5 -3 -10
-1 -10 5 0 7 -7 10 -15 6 -8 -3 -15 -1 -15 4 0 6 -9 10 -20 10 -10 0 -24 8
-29 18 -8 13 -11 14 -11 2 0 -9 -6 -6 -16 10 -10 16 -13 18 -9 6 6 -19 5 -19
-13 -3 -11 10 -23 17 -28 15 -5 -1 -19 3 -31 10 -20 11 -22 10 -17 -5 4 -13 2
-12 -8 3 -7 12 -19 19 -27 16 -8 -3 -11 0 -7 6 4 7 -1 9 -14 7 -11 -2 -20 1
-20 6 0 6 -4 7 -10 4 -5 -3 -10 0 -10 7 0 10 -3 9 -10 -2 -8 -12 -10 -12 -15
3 -5 12 -12 14 -23 8 -10 -6 -27 -2 -49 10 -18 11 -43 19 -54 19 -13 0 -18 4
-13 13 6 9 5 9 -7 0 -12 -10 -20 -9 -39 4 -13 9 -20 11 -16 5 4 -7 2 -12 -3
-12 -6 0 -11 5 -11 12 0 6 -3 8 -7 5 -3 -4 -13 -1 -21 6 -13 10 -14 9 -7 -3 7
-13 6 -13 -7 -2 -9 7 -31 15 -49 17 -19 2 -40 12 -48 22 -13 17 -13 17 -8 1 4
-10 2 -18 -3 -18 -6 0 -10 5 -10 11 0 6 -6 9 -13 6 -8 -3 -20 -1 -28 3 -8 5
-19 4 -28 -3 -11 -9 -13 -9 -8 0 4 6 3 14 -3 18 -5 3 -10 0 -10 -7 0 -9 -3 -9
-10 2 -5 8 -10 11 -10 5 0 -5 -5 -3 -10 5 -6 10 -10 11 -10 3 0 -9 -7 -10 -22
-5 -13 5 -33 7 -46 6 -12 -1 -25 3 -29 9 -4 6 -1 7 7 2 9 -5 11 -4 6 3 -4 8
-15 8 -31 2 -16 -6 -27 -6 -31 1 -4 7 -10 6 -19 -1 -9 -7 -15 -7 -19 -1 -4 5
-15 8 -26 6 -12 -2 -18 0 -14 6 4 6 -2 9 -12 8 -11 -2 -24 0 -31 4 -6 4 -15 3
-18 -3 -5 -8 -11 -7 -21 1 -8 6 -14 8 -14 3 0 -5 -11 -9 -25 -9 -14 0 -25 2
-25 6 0 3 -10 6 -22 6 -30 2 -50 7 -65 16 -8 5 -13 3 -13 -4 0 -10 -3 -10 -12
-1 -7 7 -17 8 -30 1 -12 -7 -18 -6 -18 1 0 7 -6 8 -19 1 -10 -6 -21 -7 -25 -4
-9 9 -46 11 -46 3 0 -6 -41 -5 -47 0 -8 6 -30 5 -45 -2 -10 -5 -19 -4 -23 2
-5 8 -11 7 -21 -1 -11 -9 -14 -9 -14 0 0 8 -5 9 -19 1 -14 -7 -22 -7 -26 0 -5
8 -11 7 -21 -1 -11 -9 -14 -9 -14 0 0 8 -5 9 -19 1 -12 -6 -22 -6 -25 -1 -7
10 -25 9 -43 -2 -6 -4 -13 -1 -15 5 -4 10 -6 10 -9 0z m-1776 -577 c-3 -9 -8
-14 -10 -11 -3 3 -2 9 2 15 9 16 15 13 8 -4z m4301 -133 c3 -5 -1 -9 -9 -9 -8
0 -12 4 -9 9 3 4 7 8 9 8 2 0 6 -4 9 -8z m71 -52 c3 -5 1 -10 -4 -10 -6 0 -11
5 -11 10 0 6 2 10 4 10 3 0 8 -4 11 -10z m-6075 -3235 c7 -9 8 -15 2 -15 -5 0
-12 7 -16 15 -3 8 -4 15 -2 15 2 0 9 -7 16 -15z m7010 -1239 c0 -2 -8 -10 -17
-17 -16 -13 -17 -12 -4 4 13 16 21 21 21 13z m-496 -641 c-9 -14 -18 -25 -21
-25 -5 0 5 18 20 38 17 22 18 13 1 -13z"/>
<path d="M3860 9269 c0 -5 5 -7 10 -4 6 3 10 8 10 11 0 2 -4 4 -10 4 -5 0 -10
-5 -10 -11z"/>
<path d="M8680 9186 c0 -2 8 -10 18 -17 15 -13 16 -12 3 4 -13 16 -21 21 -21
13z"/>
<path d="M3705 9150 c-3 -6 1 -7 9 -4 18 7 21 14 7 14 -6 0 -13 -4 -16 -10z"/>
<path d="M8866 9018 c3 -5 10 -6 15 -3 13 9 11 12 -6 12 -8 0 -12 -4 -9 -9z"/>
<path d="M3419 8883 c-13 -16 -12 -17 4 -4 9 7 17 15 17 17 0 8 -8 3 -21 -13z"/>
<path d="M9615 8041 c-3 -5 -2 -12 3 -15 5 -3 9 1 9 9 0 17 -3 19 -12 6z"/>
<path d="M2961 4663 c7 -12 15 -20 18 -17 3 2 -3 12 -13 22 -17 16 -18 16 -5
-5z"/>
<path d="M9363 4613 c-15 -5 -17 -23 -4 -23 5 0 11 7 15 15 3 8 4 15 3 14 -1
0 -8 -3 -14 -6z"/>
<path d="M9241 4444 c0 -11 3 -14 6 -6 3 7 2 16 -1 19 -3 4 -6 -2 -5 -13z"/>
<path d="M9059 4223 c-13 -16 -12 -17 4 -4 16 13 21 21 13 21 -2 0 -10 -8 -17
-17z"/>
<path d="M3950 3670 c0 -5 5 -10 11 -10 5 0 7 5 4 10 -3 6 -8 10 -11 10 -2 0
-4 -4 -4 -10z"/>
</g>
</svg>
