<?xml version="1.0" standalone="no"?>
<!DOCTYPE svg PUBLIC "-//W3C//DTD SVG 20010904//EN"
 "http://www.w3.org/TR/2001/REC-SVG-20010904/DTD/svg10.dtd">
<svg version="1.0" xmlns="http://www.w3.org/2000/svg"
 width="512.000000pt" height="512.000000pt" viewBox="0 0 512.000000 512.000000"
 preserveAspectRatio="xMidYMid meet">
<metadata>
Created by potrace 1.11, written by Peter Selinger 2001-2013
</metadata>
<g transform="translate(0.000000,512.000000) scale(0.100000,-0.100000)"
fill="#000000" stroke="none">
<path d="M3504 4081 c-3 -3 -10 -6 -17 -7 -32 -5 -43 -10 -59 -27 -9 -10 -24
-20 -33 -21 -9 -1 -21 -9 -26 -17 -5 -8 -9 -10 -9 -6 0 5 -14 -3 -31 -17 -17
-14 -37 -26 -45 -26 -8 0 -14 -4 -14 -8 0 -12 -56 -42 -65 -34 -5 4 -5 1 -1
-5 6 -12 -5 -18 -26 -14 -5 0 -7 -2 -5 -7 1 -4 -2 -8 -7 -9 -5 0 -13 -8 -18
-17 -5 -9 -13 -14 -19 -11 -5 4 -12 -1 -15 -9 -3 -9 -13 -16 -20 -16 -8 0 -17
-7 -20 -15 -4 -8 -10 -13 -14 -10 -4 2 -19 -6 -34 -20 -14 -13 -26 -21 -26
-18 0 4 -11 -4 -25 -17 -14 -13 -25 -20 -25 -15 0 4 -8 -2 -19 -13 -10 -12
-21 -19 -25 -15 -3 3 -6 1 -6 -6 0 -7 -4 -10 -8 -7 -5 3 -15 -4 -22 -15 -8
-10 -20 -19 -27 -19 -7 0 -13 -5 -13 -12 0 -6 -3 -8 -6 -5 -4 4 -15 -3 -26
-15 -10 -12 -21 -18 -25 -15 -3 4 -12 -2 -20 -13 -8 -11 -21 -20 -29 -20 -8 0
-14 -4 -14 -10 0 -5 -7 -10 -15 -10 -9 0 -18 -7 -21 -15 -4 -8 -10 -12 -15 -9
-5 3 -9 1 -9 -5 0 -5 -9 -13 -20 -16 -11 -4 -17 -11 -14 -17 4 -6 2 -8 -4 -4
-6 3 -16 0 -24 -7 -7 -7 -21 -16 -30 -20 -10 -3 -18 -11 -18 -17 0 -6 -4 -9
-9 -6 -5 3 -14 0 -20 -8 -13 -15 -64 -13 -69 3 -2 6 -8 9 -13 5 -5 -3 -12 2
-15 10 -3 9 -15 16 -25 16 -10 0 -19 5 -19 11 0 5 -4 8 -9 5 -5 -4 -11 -3 -13
1 -1 5 -18 19 -37 32 -19 13 -30 18 -26 11 4 -6 -12 2 -35 19 -23 17 -46 28
-51 25 -5 -3 -9 0 -9 5 0 6 -7 11 -15 11 -9 0 -18 6 -21 14 -3 8 -11 13 -18
10 -7 -3 -19 2 -26 11 -7 8 -19 15 -26 15 -8 0 -14 4 -14 10 0 5 -3 10 -7 9
-16 -2 -53 14 -53 22 0 5 -9 9 -20 9 -11 0 -20 5 -20 10 0 6 -7 10 -15 10 -17
0 -56 20 -66 33 -3 5 -9 8 -13 8 -3 -1 -21 5 -39 13 -80 33 -111 39 -197 38
-95 -1 -120 -4 -120 -14 0 -4 -4 -7 -9 -6 -5 2 -17 -6 -26 -17 -9 -11 -14 -13
-10 -5 4 8 -1 6 -10 -5 -8 -11 -26 -28 -38 -38 -12 -10 -15 -15 -7 -11 10 5 8
-1 -5 -15 -15 -18 -19 -36 -19 -89 1 -69 3 -85 29 -187 9 -33 18 -73 21 -89 3
-16 9 -39 13 -50 5 -12 7 -29 5 -39 -1 -9 2 -15 7 -11 8 4 14 -25 10 -48 0 -5
3 -8 8 -8 5 0 8 -8 7 -17 -2 -10 3 -33 11 -50 7 -18 10 -33 6 -33 -4 0 -2 -5
5 -12 7 -7 12 -25 12 -40 0 -15 4 -28 8 -28 4 0 9 -11 10 -25 2 -33 6 -49 12
-55 5 -4 28 -86 34 -115 1 -5 5 -15 9 -22 12 -19 17 -102 6 -109 -5 -3 -7 -9
-4 -14 3 -5 1 -11 -5 -15 -6 -4 -8 -11 -5 -16 4 -5 1 -9 -4 -9 -6 0 -11 -9
-11 -20 0 -11 -5 -20 -10 -20 -6 0 -9 -3 -8 -7 1 -5 -4 -18 -11 -31 -7 -13
-14 -32 -16 -44 -2 -11 -10 -27 -17 -35 -7 -8 -13 -22 -14 -31 -2 -8 -6 -18
-11 -21 -4 -3 -9 -13 -11 -21 -2 -8 -11 -23 -19 -32 -9 -10 -13 -18 -10 -18 3
0 -5 -22 -18 -49 -14 -27 -25 -53 -25 -59 0 -5 -7 -13 -16 -16 -8 -3 -13 -10
-9 -16 6 -10 -13 -50 -30 -62 -5 -4 -7 -8 -3 -8 4 0 -6 -25 -23 -55 -16 -30
-31 -58 -32 -62 -1 -5 -6 -7 -10 -5 -5 1 -6 -2 -3 -7 4 -5 2 -12 -4 -16 -6 -4
-8 -11 -5 -16 4 -5 1 -9 -4 -9 -6 0 -10 -3 -9 -7 4 -14 -13 -53 -21 -49 -4 3
-8 -5 -8 -16 -1 -12 -7 -24 -13 -28 -7 -4 -12 -10 -11 -13 1 -19 -22 -66 -30
-61 -5 3 -6 -2 -3 -10 3 -9 1 -16 -6 -16 -6 0 -9 -4 -5 -9 3 -5 0 -15 -7 -23
-7 -7 -14 -20 -16 -28 -2 -8 -8 -17 -13 -18 -5 -2 -7 -8 -3 -13 3 -5 0 -9 -5
-9 -6 0 -10 -3 -9 -7 3 -10 -64 -147 -74 -151 -5 -2 -8 -11 -8 -21 0 -9 -5
-22 -11 -28 -5 -5 -10 -32 -9 -59 1 -73 3 -84 11 -79 11 8 31 -23 23 -36 -5
-8 -3 -9 6 -4 7 4 15 3 19 -3 7 -12 64 -25 101 -22 14 0 39 2 55 3 17 1 32 4
35 8 6 6 155 41 183 42 9 1 17 6 17 11 0 5 2 7 5 4 4 -3 46 5 94 17 49 13 106
26 126 29 21 4 40 8 44 11 4 2 18 6 32 9 13 2 47 10 74 16 28 6 59 14 70 16
11 3 45 7 76 10 44 4 60 2 73 -11 9 -9 13 -21 10 -27 -4 -6 -3 -8 3 -5 9 6 49
-32 45 -43 -1 -3 8 -15 18 -27 11 -13 17 -23 13 -23 -4 0 3 -9 16 -21 12 -12
20 -28 17 -36 -3 -8 -2 -12 2 -9 5 3 22 -20 38 -50 16 -29 33 -54 37 -54 5 0
5 -4 2 -10 -3 -5 -1 -10 5 -10 6 0 8 -4 5 -10 -3 -5 -1 -10 4 -10 11 0 46 -68
42 -83 -1 -5 3 -6 8 -3 9 6 26 -22 22 -38 -1 -4 3 -14 9 -20 5 -7 6 -17 2 -21
-4 -5 -1 -5 5 -1 9 5 18 -7 29 -33 9 -23 20 -41 26 -41 5 0 7 -4 3 -9 -3 -5 1
-16 9 -24 8 -8 12 -17 9 -21 -4 -3 -1 -6 5 -6 7 0 12 -7 12 -15 0 -8 5 -15 11
-15 5 0 7 -5 3 -12 -4 -6 1 -17 11 -25 11 -7 16 -13 12 -13 -4 0 3 -17 16 -37
22 -36 35 -64 37 -81 1 -4 7 -14 14 -22 7 -8 16 -23 19 -33 4 -9 12 -16 19
-15 7 2 12 -2 11 -9 -2 -8 4 -10 14 -6 9 4 14 2 10 -3 -6 -11 157 -13 168 -2
4 4 13 4 21 1 8 -3 14 0 14 6 0 6 5 10 11 8 6 -1 24 22 39 50 15 29 25 53 23
53 -3 0 0 6 6 13 6 8 8 17 4 20 -3 4 -1 7 6 7 7 0 10 4 7 8 -3 5 1 20 9 35 8
15 11 27 8 27 -3 0 1 7 8 17 8 9 13 17 11 17 -2 1 2 15 8 31 7 17 13 35 15 40
13 43 18 55 25 55 5 0 6 9 3 20 -3 12 0 20 8 20 7 0 10 3 6 6 -3 4 1 20 9 36
8 16 12 33 9 38 -3 6 -1 10 4 10 6 0 11 9 11 20 0 11 5 20 11 20 5 0 8 4 5 9
-4 5 3 29 13 54 11 25 17 48 14 51 -4 3 -1 6 6 6 7 0 9 4 6 10 -3 5 -1 10 5
10 6 0 9 4 6 8 -3 5 1 20 9 35 8 15 11 27 8 27 -3 0 0 6 6 14 6 8 11 18 9 22
-1 5 9 32 22 59 12 28 22 53 21 58 0 4 8 25 19 47 11 22 18 40 15 40 -3 0 1
11 10 23 14 23 57 37 151 53 16 2 40 7 54 10 30 7 86 16 118 18 12 0 22 3 22
6 0 3 8 6 18 6 16 1 45 5 127 20 17 3 41 7 55 9 14 2 36 7 50 10 23 5 38 7
120 20 72 11 88 14 125 20 50 9 71 13 115 21 67 12 75 14 110 21 45 8 104 33
97 40 -4 3 0 11 7 19 10 9 13 43 11 121 -2 118 -9 160 -31 184 -8 8 -11 19 -7
24 5 4 3 5 -3 2 -7 -4 -26 6 -43 22 -16 15 -33 26 -36 23 -3 -3 -5 2 -5 11 0
9 -5 19 -12 23 -7 4 -8 3 -4 -4 4 -7 4 -12 1 -12 -11 0 -35 28 -35 40 0 6 -4
9 -9 6 -4 -3 -19 3 -31 14 -13 11 -27 20 -32 20 -4 0 -8 7 -8 15 0 8 -7 15
-16 15 -19 0 -46 25 -36 35 4 4 2 6 -3 5 -22 -5 -36 1 -29 12 4 6 3 8 -4 4 -6
-3 -22 4 -37 18 -14 13 -41 34 -60 47 -19 13 -35 27 -35 32 0 4 -7 7 -15 7 -9
0 -18 7 -21 15 -4 8 -10 13 -14 10 -5 -3 -15 4 -23 15 -7 11 -17 17 -20 13 -4
-3 -7 1 -7 11 0 9 -4 15 -9 12 -5 -3 -21 6 -35 19 -15 14 -29 25 -32 25 -14 0
-53 38 -46 45 4 5 2 5 -5 1 -7 -3 -21 1 -33 11 -20 18 -20 22 -15 488 4 258 8
557 10 662 5 188 0 230 -28 257 -14 14 -48 30 -59 28 -5 -1 -8 3 -8 9 0 5 -4
7 -10 4 -5 -3 -10 -3 -10 2 0 8 -58 11 -66 4z"/>
</g>
</svg>
