<?xml version="1.0" standalone="no"?>
<!DOCTYPE svg PUBLIC "-//W3C//DTD SVG 20010904//EN"
 "http://www.w3.org/TR/2001/REC-SVG-20010904/DTD/svg10.dtd">
<svg version="1.0" xmlns="http://www.w3.org/2000/svg"
 width="1024.000000pt" height="1024.000000pt" viewBox="0 0 1024.000000 1024.000000"
 preserveAspectRatio="xMidYMid meet">
<metadata>
Created by potrace 1.11, written by Peter Selinger 2001-2013
</metadata>
<g transform="translate(0.000000,1024.000000) scale(0.100000,-0.100000)"
fill="#000000" stroke="none">
<path d="M4857 10230 c-992 -53 -1928 -384 -2737 -968 -388 -280 -780 -662
-1057 -1031 -40 -53 -77 -100 -81 -106 -30 -37 -142 -205 -142 -213 0 -6 -4
-12 -9 -14 -26 -10 -273 -452 -345 -619 -11 -24 -36 -80 -57 -124 -20 -44 -40
-93 -44 -109 -3 -16 -19 -58 -36 -92 -16 -35 -29 -67 -29 -72 0 -5 -7 -23 -16
-40 -8 -18 -13 -36 -9 -42 3 -5 1 -10 -4 -10 -6 0 -10 -3 -10 -7 1 -5 0 -11
-1 -15 -1 -5 -3 -11 -5 -15 -1 -5 -5 -17 -9 -28 -30 -79 -36 -97 -31 -105 3
-5 1 -11 -5 -15 -5 -3 -10 -16 -10 -29 0 -12 -3 -26 -7 -30 -4 -3 -8 -12 -9
-19 -2 -7 -12 -44 -22 -84 -11 -40 -18 -74 -16 -76 2 -2 -3 -20 -11 -40 -16
-38 -71 -299 -80 -377 -2 -25 -9 -71 -15 -103 -6 -32 -8 -62 -5 -67 3 -5 2
-18 -4 -27 -5 -10 -12 -50 -15 -88 -3 -39 -9 -110 -13 -160 -11 -121 -9 -795
1 -820 5 -11 10 -40 11 -65 5 -100 17 -204 25 -220 5 -10 7 -19 5 -22 -3 -2 2
-45 11 -94 8 -49 17 -102 19 -119 12 -76 69 -323 82 -355 4 -8 7 -19 8 -25 6
-50 18 -94 24 -90 4 2 8 -8 8 -23 0 -15 6 -40 13 -57 7 -16 14 -34 15 -40 7
-31 36 -119 48 -147 8 -18 20 -51 27 -73 22 -71 110 -287 125 -308 8 -12 15
-29 15 -39 0 -9 7 -23 15 -32 9 -8 14 -17 13 -18 -4 -4 34 -91 43 -98 3 -3 23
-42 44 -87 21 -46 42 -83 47 -83 4 0 8 -9 8 -19 0 -11 4 -22 9 -25 4 -3 26
-39 47 -81 21 -41 42 -75 46 -75 5 0 8 -5 8 -10 0 -11 147 -241 159 -250 4 -3
10 -12 13 -20 7 -19 217 -300 250 -334 13 -13 39 -43 58 -67 68 -83 107 -125
255 -277 875 -898 2024 -1429 3295 -1523 225 -17 709 -6 928 20 1031 123 1926
509 2727 1176 156 129 472 446 605 605 200 240 389 509 530 755 90 155 258
505 323 670 399 1015 464 2134 187 3190 -283 1078 -922 2045 -1808 2734 -485
377 -1038 666 -1627 850 -236 73 -520 137 -780 175 -282 42 -709 61 -998 46z
m-879 -2203 c167 -58 291 -167 367 -319 85 -173 94 -354 25 -522 -15 -39 -218
-457 -449 -929 -232 -472 -421 -862 -421 -867 0 -6 190 -10 500 -10 l500 0 0
273 c0 211 3 286 15 332 68 267 314 465 580 465 252 0 495 -183 576 -435 8
-27 14 -137 18 -339 l6 -299 60 -14 c160 -36 331 -171 408 -320 193 -372 -3
-816 -405 -920 l-68 -17 0 -786 c0 -873 1 -853 -67 -983 -46 -87 -125 -173
-206 -227 -144 -94 -341 -120 -502 -66 -183 62 -311 187 -384 375 l-26 66 -3
808 -3 807 -1047 0 c-1169 0 -1120 -2 -1271 70 -119 57 -231 170 -289 290 -77
161 -90 320 -37 475 13 39 105 237 205 440 100 204 222 451 270 550 387 797
895 1824 919 1858 37 53 133 145 190 181 48 31 154 73 216 86 22 5 87 8 145 6
82 -2 121 -9 178 -29z m3245 -623 c254 -56 466 -260 533 -514 23 -87 24 -254
1 -340 -23 -87 -86 -212 -142 -282 -84 -104 -247 -206 -385 -239 -79 -19 -251
-16 -330 5 -366 99 -592 463 -515 831 8 39 36 113 61 165 39 79 62 110 133
181 138 138 298 206 489 208 46 1 115 -6 155 -15z m-12 -1978 c264 -56 475
-256 545 -516 21 -80 24 -252 5 -330 -19 -78 -81 -208 -132 -276 -85 -112
-231 -209 -379 -250 -103 -29 -282 -25 -385 9 -115 38 -199 90 -292 183 -67
68 -89 97 -126 175 -78 162 -96 314 -57 478 31 130 89 231 190 332 72 73 101
94 180 132 150 73 304 94 451 63z m-4 -1982 c152 -31 260 -90 370 -201 59 -60
82 -93 122 -176 27 -56 55 -127 62 -157 19 -78 16 -251 -5 -330 -80 -295 -336
-507 -639 -527 -126 -8 -233 14 -357 74 -79 38 -108 59 -180 132 -101 101
-159 202 -190 332 -39 164 -21 316 57 478 37 77 59 108 126 176 175 176 402
247 634 199z"/>
<path d="M6639 6606 c-44 -21 -46 -57 -10 -131 80 -163 240 -255 441 -255 193
0 360 91 439 240 50 93 41 153 -23 153 -34 0 -52 -17 -75 -69 -62 -139 -242
-226 -408 -195 -130 24 -220 91 -274 205 -26 55 -54 70 -90 52z"/>
<path d="M6625 4615 c-32 -31 -31 -44 4 -119 113 -234 428 -325 689 -198 107
52 222 193 224 275 1 30 -30 67 -56 67 -24 0 -54 -31 -80 -84 -65 -132 -240
-215 -397 -187 -130 22 -223 89 -273 194 -37 80 -69 95 -111 52z"/>
<path d="M6620 2630 c-27 -27 -25 -44 9 -115 64 -135 200 -232 359 -256 157
-23 327 28 437 132 60 56 129 177 118 207 -11 32 -36 52 -63 52 -32 0 -45 -14
-75 -79 -30 -64 -87 -117 -165 -155 -60 -29 -73 -31 -170 -31 -93 0 -112 3
-161 26 -79 37 -134 91 -169 164 -17 35 -37 66 -46 69 -29 11 -54 6 -74 -14z"/>
</g>
</svg>
