<?xml version="1.0" standalone="no"?>
<!DOCTYPE svg PUBLIC "-//W3C//DTD SVG 20010904//EN"
 "http://www.w3.org/TR/2001/REC-SVG-20010904/DTD/svg10.dtd">
<svg version="1.0" xmlns="http://www.w3.org/2000/svg"
 width="512.000000pt" height="512.000000pt" viewBox="0 0 512.000000 512.000000"
 preserveAspectRatio="xMidYMid meet">
<metadata>
Created by potrace 1.14, written by Peter Selinger 2001-2017
</metadata>
<g transform="translate(0.000000,512.000000) scale(0.100000,-0.100000)"
fill="#000000" stroke="none">
<path d="M928 5112 l-918 -2 0 -2555 0 -2555 2555 0 2555 0 0 2560 0 2560
-1637 -2 c-901 -2 -2051 -4 -2555 -6z m1097 -1131 c129 -57 210 -207 185 -341
-11 -59 -19 -77 -263 -572 l-186 -378 244 0 243 0 4 148 c4 173 21 225 95 293
63 58 114 79 198 79 120 0 211 -56 264 -162 30 -60 31 -64 31 -210 0 -110 3
-150 13 -152 158 -46 245 -146 255 -293 3 -50 0 -85 -12 -118 -31 -93 -120
-179 -213 -206 l-42 -12 -3 -411 c-3 -404 -3 -412 -25 -453 -28 -52 -85 -108
-138 -136 -58 -32 -193 -31 -252 1 -66 35 -110 79 -140 140 l-28 57 -3 403 -3
402 -538 0 -538 0 -61 30 c-71 36 -115 83 -150 158 -28 62 -34 153 -12 216 18
57 666 1374 696 1418 32 45 89 86 157 110 63 23 156 18 222 -11z m1636 -318
c91 -41 164 -125 193 -223 20 -68 20 -122 0 -190 -31 -105 -112 -193 -213
-231 -79 -30 -196 -24 -273 14 -137 67 -218 228 -188 373 21 101 65 169 148
226 25 17 63 37 86 44 59 20 189 13 247 -13z m-59 -957 c106 -25 193 -98 240
-203 17 -37 22 -67 22 -133 1 -104 -28 -174 -99 -245 -191 -191 -514 -100
-581 165 -45 177 67 366 246 414 69 19 101 19 172 2z m60 -994 c151 -67 239
-251 194 -406 -46 -157 -176 -256 -336 -256 -136 0 -250 71 -311 196 -53 108
-44 239 24 340 39 58 113 116 176 138 64 22 190 16 253 -12z"/>
<path d="M3294 3277 c-13 -35 46 -116 110 -150 58 -30 174 -31 232 0 91 49
151 163 85 163 -11 0 -24 -12 -31 -29 -52 -126 -262 -135 -328 -13 -24 42 -57
57 -68 29z"/>
<path d="M3293 2303 c-11 -29 39 -105 92 -138 39 -24 61 -30 122 -33 64 -4 80
-1 128 23 61 29 101 75 111 123 9 43 -21 56 -47 21 -52 -69 -66 -83 -98 -97
-46 -18 -130 -18 -167 1 -37 19 -70 55 -83 90 -12 31 -48 37 -58 10z"/>
<path d="M3295 1330 c-13 -21 18 -81 60 -118 67 -59 157 -77 247 -50 74 22
161 120 144 163 -9 26 -43 17 -56 -14 -57 -139 -292 -131 -343 12 -7 18 -42
23 -52 7z"/>
</g>
</svg>
